<svg id="svg" xmlns="http://www.w3.org/2000/svg" xmlns:xlink="http://www.w3.org/1999/xlink" width="500" height="665.2806652806653" viewBox="0, 0, 500,665.2806652806653"><g id="svgg"><path id="path0" d="M85.239 0.521 C 80.579 1.566,74.844 5.473,74.844 7.602 C 74.844 7.987,76.226 10.535,77.915 13.264 C 90.845 34.150,98.577 48.906,101.299 57.888 C 104.766 69.332,104.501 72.245,98.939 83.853 C 91.723 98.912,90.212 107.517,91.847 124.220 C 93.738 143.542,98.550 158.686,112.875 190.402 C 119.263 204.546,121.685 210.376,124.394 218.122 C 125.593 221.552,127.471 226.621,128.567 229.385 L 130.559 234.411 129.761 241.166 C 128.317 253.398,127.584 256.560,114.873 305.440 C 103.545 349.000,103.386 349.931,103.711 370.752 C 103.922 384.299,104.152 389.016,106.049 418.878 C 106.636 428.099,106.988 435.752,106.832 435.885 C 106.676 436.018,105.847 436.324,104.990 436.565 C 96.022 439.082,75.052 447.998,64.622 453.729 C 57.386 457.705,45.106 465.734,43.659 467.436 C 43.564 467.548,42.394 468.506,41.060 469.565 C 36.348 473.305,28.585 481.329,25.359 485.793 C 24.740 486.651,23.692 488.084,23.031 488.978 C 22.370 489.872,21.830 490.705,21.830 490.830 C 21.830 490.955,21.536 491.471,21.177 491.977 C 19.719 494.032,16.667 499.632,16.132 501.234 C 15.817 502.175,14.947 504.131,14.199 505.580 C 12.466 508.935,11.817 511.392,11.460 515.939 C 11.254 518.566,10.968 519.972,10.431 520.997 C 6.292 528.899,6.304 547.147,10.455 555.960 C 11.224 557.593,11.434 558.535,11.434 560.355 C 11.435 563.817,12.313 567.373,14.027 570.859 C 14.871 572.574,15.856 574.839,16.216 575.892 C 16.576 576.945,17.313 578.504,17.853 579.357 C 18.393 580.210,19.249 581.687,19.755 582.640 C 24.534 591.629,35.099 603.105,46.258 611.429 C 101.519 652.651,218.851 671.145,327.243 655.718 C 380.541 648.133,425.763 632.300,453.742 611.429 C 464.901 603.105,475.466 591.629,480.245 582.640 C 480.751 581.687,481.607 580.210,482.147 579.357 C 482.687 578.504,483.424 576.945,483.784 575.892 C 484.144 574.839,485.129 572.574,485.973 570.859 C 487.687 567.373,488.565 563.817,488.566 560.355 C 488.566 558.535,488.776 557.593,489.545 555.960 C 493.696 547.147,493.708 528.899,489.569 520.997 C 489.032 519.972,488.746 518.566,488.540 515.939 C 488.183 511.392,487.534 508.935,485.801 505.580 C 485.053 504.131,484.183 502.175,483.868 501.234 C 483.333 499.632,480.281 494.032,478.823 491.977 C 478.464 491.471,478.170 490.955,478.170 490.830 C 478.170 490.705,477.630 489.872,476.969 488.978 C 476.308 488.084,475.264 486.651,474.650 485.793 C 474.035 484.936,473.185 483.844,472.760 483.368 C 472.114 482.644,471.923 481.820,471.596 478.344 C 470.705 468.870,465.052 430.027,463.468 422.498 C 460.931 410.435,450.388 397.236,432.659 383.924 L 428.040 380.456 427.810 370.148 C 427.116 338.982,422.930 320.764,410.631 295.392 C 401.629 276.818,394.754 267.368,376.476 248.441 C 373.992 245.868,370.570 242.235,368.872 240.366 L 365.786 236.970 365.861 227.719 C 366.016 208.494,364.196 200.770,355.271 182.779 C 346.877 165.859,345.991 159.244,349.282 138.080 C 357.275 86.690,345.150 49.446,312.790 25.988 C 287.864 7.918,277.367 5.206,232.328 5.203 C 202.774 5.201,198.445 5.437,172.211 8.487 C 142.107 11.987,134.297 11.589,117.290 5.685 C 101.782 0.301,92.725 -1.158,85.239 0.521 M95.684 2.433 C 100.539 2.912,106.570 4.451,114.116 7.138 C 133.018 13.866,141.663 14.431,171.685 10.899 C 197.750 7.833,202.520 7.565,231.982 7.500 C 276.680 7.403,288.359 10.491,312.667 28.835 C 344.097 52.554,354.493 86.593,346.613 139.986 C 343.693 159.773,344.727 166.511,353.423 184.338 C 362.218 202.367,364.619 213.767,363.534 232.328 C 363.319 235.991,363.355 237.355,363.678 237.897 C 364.322 238.976,369.884 245.047,376.988 252.426 C 392.736 268.783,400.686 279.936,408.922 297.228 C 420.878 322.329,424.831 339.868,425.452 370.575 L 425.676 381.655 429.864 384.781 C 447.861 398.212,457.966 410.361,461.005 422.223 C 461.588 424.500,467.025 459.587,468.118 468.122 C 470.631 487.763,470.510 497.107,467.593 508.489 C 466.958 510.967,465.739 515.722,464.884 519.058 C 462.368 528.869,461.478 535.104,460.673 548.543 C 459.671 565.294,455.918 569.415,439.189 572.140 C 432.548 573.222,390.078 572.497,385.135 571.217 C 371.481 567.683,365.662 553.356,372.523 540.167 C 374.009 537.310,374.731 536.553,380.090 532.225 C 381.859 530.795,384.108 528.702,385.087 527.572 C 390.562 521.258,400.815 516.347,407.804 516.693 C 411.285 516.865,411.306 515.306,407.831 514.659 C 399.915 513.184,394.965 514.822,388.323 521.115 C 386.189 523.137,383.896 525.233,383.229 525.772 C 382.562 526.311,380.120 528.529,377.802 530.700 C 364.104 543.531,329.601 559.252,315.137 559.252 C 312.905 559.252,312.981 559.455,312.683 552.668 C 311.963 536.264,322.856 494.599,335.018 467.236 C 337.772 461.041,337.926 460.398,336.626 460.563 C 334.624 460.816,322.414 488.477,317.917 502.945 C 312.088 521.700,310.936 530.026,309.774 561.850 C 308.808 588.303,305.500 592.449,281.854 596.852 C 262.193 600.514,251.159 600.460,236.665 596.632 C 219.547 592.112,212.170 584.690,215.510 575.349 C 220.336 561.856,229.008 528.747,243.778 467.429 C 257.627 409.932,257.120 412.335,255.402 412.335 C 254.459 412.335,254.774 411.223,250.886 428.274 C 246.045 449.501,222.859 542.006,222.219 542.646 C 222.051 542.814,220.670 543.128,219.151 543.343 C 208.078 544.911,191.263 538.512,181.219 528.907 L 180.005 527.747 180.241 524.182 C 181.166 510.186,180.346 474.064,179.086 473.285 C 177.882 472.542,177.668 473.319,177.887 477.617 C 178.753 494.526,178.466 517.260,177.189 532.918 C 176.795 537.750,176.707 541.303,176.879 545.392 C 177.337 556.255,177.051 558.261,174.245 563.844 C 162.051 588.106,152.477 591.514,98.794 590.701 C 74.656 590.336,74.175 590.258,71.695 586.348 C 67.924 580.404,68.798 567.807,73.537 559.784 C 74.779 557.682,78.985 553.015,79.638 553.015 C 79.765 553.015,81.281 551.728,83.007 550.156 C 84.733 548.584,88.377 545.270,91.103 542.793 C 101.353 533.480,106.314 526.539,108.317 518.711 C 108.843 516.655,110.225 489.330,110.192 481.635 C 110.182 479.253,110.274 473.039,110.397 467.825 C 110.641 457.509,110.402 451.223,108.790 425.502 C 104.209 352.414,103.910 356.910,116.591 308.212 C 128.621 262.018,130.823 252.614,131.997 242.436 C 132.983 233.890,132.997 234.062,130.843 228.678 C 129.816 226.112,127.852 220.818,126.477 216.914 C 123.751 209.169,121.160 202.954,114.725 188.728 C 100.285 156.801,95.659 141.722,93.874 120.755 C 92.721 107.211,94.504 98.517,101.336 84.373 C 102.717 81.514,104.041 78.581,104.279 77.854 C 104.537 77.066,105.017 76.417,105.471 76.245 C 106.027 76.033,106.715 74.805,108.031 71.675 C 113.993 57.486,118.304 54.446,131.887 54.851 C 140.365 55.104,140.085 55.330,137.336 50.452 C 130.845 38.934,122.321 28.977,112.093 20.963 C 99.148 10.821,81.856 3.855,78.117 7.277 L 77.170 8.143 77.767 7.208 C 79.088 5.143,83.636 3.020,87.918 2.468 C 91.247 2.040,91.681 2.038,95.684 2.433 M88.184 9.965 C 105.577 15.704,124.977 32.547,135.068 50.670 C 136.432 53.120,136.432 53.140,135.049 52.881 C 133.081 52.512,124.641 52.615,122.661 53.032 C 116.519 54.327,112.212 58.348,107.951 66.764 C 106.204 70.216,106.199 70.211,105.876 64.796 C 105.414 57.042,100.148 45.350,88.125 25.384 C 76.905 6.750,76.907 6.244,88.184 9.965 M270.270 31.147 C 253.984 34.743,235.586 49.292,220.271 70.686 C 218.839 72.687,217.706 74.365,217.753 74.414 C 217.801 74.464,222.815 74.817,228.896 75.199 C 263.106 77.349,277.630 83.046,300.658 103.347 L 304.888 107.076 305.066 105.946 C 306.510 96.788,306.801 76.247,305.621 66.701 C 302.347 40.219,289.177 26.973,270.270 31.147 M281.878 33.092 C 298.599 36.603,306.535 59.449,303.866 96.388 C 303.373 103.201,303.515 103.005,300.787 100.626 C 282.142 84.365,264.621 76.307,243.243 74.161 C 239.706 73.806,224.324 72.765,222.613 72.765 C 221.394 72.765,221.498 72.501,224.064 69.080 C 242.975 43.866,265.730 29.702,281.878 33.092 M122.814 140.304 C 122.249 141.697,122.241 151.253,122.804 153.637 C 124.795 162.072,131.314 166.519,143.527 167.773 C 148.400 168.274,147.972 168.686,147.400 164.040 C 145.787 150.926,140.012 142.748,130.804 140.538 C 127.542 139.755,123.090 139.625,122.814 140.304 M133.238 144.816 C 136.672 146.506,140.368 150.728,138.415 150.728 C 134.548 150.728,133.187 156.323,136.483 158.670 C 138.130 159.843,142.412 159.091,142.412 157.629 C 142.412 156.789,143.017 157.478,143.556 158.933 C 144.259 160.830,144.207 160.891,141.372 161.541 C 130.386 164.058,123.942 157.971,126.639 147.625 C 127.867 142.910,128.672 142.568,133.238 144.816 M205.685 152.859 C 200.253 153.395,194.400 156.177,191.046 159.816 C 188.509 162.567,184.680 168.834,185.301 169.218 C 186.061 169.687,192.995 172.294,196.466 173.414 C 216.437 179.862,227.692 175.974,231.101 161.452 C 231.512 159.704,231.800 158.235,231.741 158.188 C 230.185 156.921,216.991 153.217,213.102 152.955 C 211.671 152.858,210.031 152.736,209.459 152.684 C 208.888 152.632,207.189 152.711,205.685 152.859 M217.184 156.474 C 218.653 156.775,220.712 157.364,221.760 157.783 L 223.666 158.543 223.609 160.659 C 223.388 168.793,214.027 174.565,207.376 170.667 C 204.202 168.807,201.342 162.875,201.323 158.112 L 201.317 156.661 202.963 156.439 C 203.868 156.317,204.764 156.164,204.955 156.099 C 206.061 155.720,214.821 155.989,217.184 156.474 M212.369 160.174 C 209.766 161.909,209.422 164.700,211.550 166.828 C 213.678 168.956,216.470 168.613,218.204 166.009 C 220.708 162.250,216.128 157.671,212.369 160.174 M146.686 189.731 C 144.827 194.577,151.355 206.167,159.217 211.978 C 162.457 214.372,162.443 214.144,159.563 217.282 C 156.140 221.012,156.738 223.082,160.367 220.067 C 163.663 217.329,165.902 216.954,169.925 218.468 C 175.302 220.492,175.650 218.814,170.392 216.222 C 168.438 215.259,166.405 214.113,165.874 213.675 L 164.908 212.878 165.611 211.985 C 168.759 207.982,173.162 199.316,174.292 194.897 C 175.289 191.001,174.692 190.334,172.096 192.439 C 164.788 198.364,152.690 197.690,149.184 191.163 C 148.121 189.186,147.117 188.610,146.686 189.731 M107.397 501.733 C 106.958 511.804,106.593 517.066,106.242 518.380 C 104.005 526.747,99.720 532.232,85.233 545.268 C 82.466 547.757,79.737 550.324,79.167 550.971 C 75.996 554.576,65.261 557.359,61.157 555.639 C 54.838 552.991,52.822 542.561,56.992 534.087 C 58.727 530.562,59.766 529.667,72.730 520.548 C 97.986 502.781,104.216 496.901,107.368 487.859 C 108.052 485.896,108.054 486.651,107.397 501.733 " stroke="none" fill="#0c0b0a" fill-rule="evenodd"></path><path id="path1" d="M86.105 2.936 C 83.832 3.434,80.659 4.788,79.441 5.780 C 78.679 6.400,78.719 6.411,81.866 6.426 C 97.799 6.502,124.919 27.860,137.356 50.125 C 140.373 55.527,140.354 55.548,132.930 55.010 C 119.255 54.018,114.205 57.428,108.234 71.686 C 106.552 75.704,105.896 76.750,105.294 76.377 C 105.157 76.293,104.856 76.810,104.625 77.526 C 104.394 78.243,102.821 81.733,101.128 85.283 C 88.253 112.293,91.660 137.416,115.260 189.474 C 121.385 202.986,123.940 209.127,126.746 217.082 C 128.090 220.894,130.075 226.258,131.157 229.001 L 133.125 233.990 132.369 240.782 C 131.011 252.995,130.101 256.933,116.790 308.212 C 106.398 348.243,106.213 349.264,106.226 366.597 C 106.236 380.463,106.346 382.924,108.451 416.667 C 111.149 459.902,111.242 466.575,109.658 502.772 C 108.634 526.188,107.077 529.012,83.853 549.556 C 75.281 557.139,74.798 557.665,72.967 561.383 C 67.319 572.854,68.914 587.594,76.013 589.544 C 78.872 590.329,116.067 591.024,126.280 590.483 C 148.613 589.300,159.152 585.720,165.600 577.127 C 175.395 564.072,177.567 558.300,176.726 547.551 C 176.347 542.702,176.379 541.047,177.013 532.571 C 178.528 512.323,178.723 498.013,177.721 480.498 C 177.331 473.685,177.415 472.973,178.607 472.973 C 179.604 472.973,179.717 473.265,180.258 477.232 C 180.748 480.829,180.887 515.604,180.442 523.406 L 180.184 527.929 182.808 529.990 C 195.705 540.122,211.111 545.349,220.721 542.852 L 222.280 542.446 224.449 533.957 C 233.542 498.379,248.248 439.106,250.885 427.408 C 254.112 413.090,254.563 411.701,255.827 412.186 C 256.897 412.596,256.511 415.089,253.290 428.601 C 239.367 487.003,227.335 535.497,221.817 555.440 C 219.000 565.624,217.783 569.545,215.558 575.615 C 211.327 587.154,226.823 596.987,252.599 599.120 C 261.768 599.879,267.036 599.420,282.918 596.480 C 304.805 592.428,308.434 587.948,309.428 563.756 C 309.612 559.278,309.919 552.963,310.110 549.723 C 310.301 546.483,310.540 541.883,310.641 539.501 C 311.506 519.158,319.229 493.842,333.202 465.548 C 335.751 460.387,336.403 459.609,337.367 460.573 C 337.912 461.118,337.826 461.426,336.015 465.418 C 323.247 493.559,312.522 534.118,312.967 552.580 C 313.147 560.074,312.764 559.490,317.144 558.944 C 334.862 556.735,364.807 542.766,377.512 530.784 C 379.608 528.807,382.275 526.399,383.438 525.433 C 384.602 524.467,386.161 523.001,386.903 522.174 C 390.557 518.109,395.792 514.889,399.794 514.244 C 403.229 513.691,410.010 514.452,410.387 515.432 C 410.863 516.674,410.303 516.891,406.164 517.067 C 398.815 517.380,391.661 521.045,384.905 527.955 C 383.126 529.774,380.286 532.340,378.594 533.657 C 366.239 543.275,366.996 562.253,380.007 569.055 C 384.021 571.153,386.869 571.718,395.184 572.067 C 449.677 574.352,459.418 571.218,460.331 551.109 C 461.008 536.221,462.160 528.697,466.035 513.860 C 470.568 496.506,470.796 491.049,467.947 468.295 C 466.998 460.718,461.808 426.819,461.047 423.231 C 458.483 411.131,447.585 397.894,429.054 384.374 C 427.101 382.949,425.484 381.757,425.461 381.726 C 425.438 381.695,425.368 377.382,425.304 372.141 C 424.919 340.195,420.538 321.158,407.515 294.833 C 399.248 278.125,392.693 269.123,376.190 251.818 C 371.962 247.386,367.303 242.402,365.836 240.745 L 363.169 237.731 363.377 229.292 C 363.842 210.438,362.044 202.474,353.228 184.338 C 344.343 166.059,343.387 159.048,346.836 137.457 C 354.223 91.214,343.423 53.463,316.701 32.125 C 290.648 11.320,277.928 7.620,232.502 7.631 C 204.836 7.637,197.937 8.019,173.294 10.907 C 142.074 14.566,132.907 14.072,115.385 7.783 C 101.759 2.893,92.955 1.436,86.105 2.936 M79.695 9.442 C 79.696 10.755,81.417 13.945,88.103 25.025 C 100.774 46.021,105.607 56.917,106.239 65.906 L 106.474 69.238 107.944 66.355 C 113.565 55.340,117.993 52.493,129.505 52.497 C 132.983 52.498,135.828 52.467,135.828 52.429 C 135.828 52.197,132.969 47.514,131.214 44.872 C 128.362 40.577,124.601 35.933,120.899 32.133 L 117.780 28.933 118.623 30.665 C 121.572 36.723,122.127 42.800,119.913 44.778 C 113.425 50.575,95.387 30.135,95.106 16.668 C 95.019 12.520,95.338 12.919,90.610 11.049 C 84.547 8.652,79.695 7.938,79.695 9.442 M281.047 30.632 C 300.635 33.812,309.893 59.944,305.795 100.485 C 305.516 103.248,305.283 105.860,305.277 106.289 C 305.261 107.494,304.912 107.295,301.063 103.890 C 282.256 87.254,266.565 79.523,246.015 76.771 C 242.377 76.284,222.159 74.844,218.955 74.844 C 217.175 74.844,217.224 74.614,219.748 71.087 C 231.532 54.620,244.911 42.148,257.985 35.444 C 263.401 32.667,267.887 31.251,274.082 30.364 C 276.010 30.088,278.218 30.173,281.047 30.632 M282.051 33.849 C 283.481 34.349,286.131 35.522,287.942 36.456 C 290.301 37.672,290.939 37.903,290.194 37.268 C 288.019 35.417,283.762 33.534,280.839 33.131 C 279.801 32.988,280.105 33.168,282.051 33.849 M240.991 50.536 C 234.398 56.417,221.406 71.487,222.225 72.306 C 222.344 72.425,226.849 72.804,232.236 73.149 C 262.681 75.098,279.592 81.784,300.343 100.078 C 301.733 101.303,302.933 102.241,303.011 102.163 C 303.786 101.388,304.563 71.946,303.828 71.211 C 303.704 71.087,302.839 71.534,301.905 72.204 C 287.550 82.517,255.303 71.747,247.217 53.939 C 246.488 52.334,246.180 51.278,245.509 48.077 C 245.231 46.750,245.245 46.742,240.991 50.536 M130.111 140.161 C 140.001 142.237,146.082 150.729,147.670 164.682 C 148.138 168.795,148.495 168.474,143.942 168.027 C 126.542 166.320,119.660 157.613,122.528 140.939 L 122.752 139.640 125.219 139.646 C 126.575 139.649,128.777 139.881,130.111 140.161 M218.642 153.629 C 221.698 154.334,230.337 157.197,231.689 157.954 C 231.980 158.116,231.863 159.076,231.260 161.469 C 227.088 178.030,214.323 180.846,188.756 170.843 C 184.580 169.210,184.700 169.377,185.945 166.915 C 192.105 154.736,203.452 150.125,218.642 153.629 M149.257 191.024 C 153.169 197.719,165.245 198.182,172.387 191.912 C 177.889 187.081,174.256 199.300,166.918 210.308 L 165.197 212.889 166.146 213.645 C 167.103 214.408,171.217 216.560,172.999 217.230 C 174.213 217.686,174.551 218.529,173.816 219.264 C 173.289 219.791,173.008 219.751,169.970 218.717 C 165.225 217.103,163.754 217.347,160.320 220.320 C 158.528 221.870,157.977 222.043,157.325 221.257 C 156.693 220.496,157.118 219.673,159.394 217.252 C 162.005 214.473,161.991 214.243,159.087 212.091 C 154.078 208.377,149.872 203.093,147.932 198.075 C 145.201 191.013,146.187 185.770,149.257 191.024 M106.947 489.345 C 103.912 497.293,97.120 503.562,73.631 520.100 C 58.213 530.956,57.353 531.817,55.779 537.971 C 53.191 548.092,57.344 556.122,65.173 556.131 C 68.590 556.135,77.332 552.941,78.572 551.236 C 78.812 550.906,81.931 547.994,85.502 544.766 C 100.426 531.277,105.115 524.894,106.367 516.367 C 106.740 513.826,107.911 488.253,107.666 488.008 C 107.583 487.925,107.259 488.527,106.947 489.345 " stroke="none" fill="#dbd3c7" fill-rule="evenodd"></path><path id="path2" d="M90.870 2.327 C 91.394 2.407,92.251 2.407,92.775 2.327 C 93.300 2.248,92.871 2.183,91.823 2.183 C 90.774 2.183,90.346 2.248,90.870 2.327 M77.963 6.930 C 77.555 7.502,77.300 7.970,77.396 7.970 C 77.491 7.970,77.902 7.502,78.309 6.930 C 78.716 6.358,78.971 5.891,78.876 5.891 C 78.781 5.891,78.370 6.358,77.963 6.930 M230.359 7.536 C 233.849 7.593,239.462 7.592,242.833 7.536 C 246.203 7.479,243.347 7.433,236.486 7.433 C 229.626 7.433,226.868 7.479,230.359 7.536 M205.561 7.862 C 205.895 7.949,206.441 7.949,206.774 7.862 C 207.108 7.775,206.835 7.703,206.168 7.703 C 205.501 7.703,205.228 7.775,205.561 7.862 M139.726 13.059 C 140.060 13.147,140.606 13.147,140.939 13.059 C 141.273 12.972,141.000 12.901,140.333 12.901 C 139.666 12.901,139.393 12.972,139.726 13.059 M118.835 26.767 C 120.271 28.297,120.582 28.572,120.582 28.312 C 120.582 28.256,119.841 27.516,118.936 26.666 L 117.290 25.121 118.835 26.767 M117.637 28.760 C 118.575 29.712,119.421 30.492,119.517 30.492 C 119.612 30.492,118.922 29.712,117.983 28.760 C 117.045 27.807,116.199 27.027,116.104 27.027 C 116.008 27.027,116.698 27.807,117.637 28.760 M323.458 38.115 C 324.782 39.449,325.943 40.541,326.038 40.541 C 326.134 40.541,325.128 39.449,323.805 38.115 C 322.481 36.781,321.320 35.690,321.224 35.690 C 321.129 35.690,322.134 36.781,323.458 38.115 M267.664 43.566 C 260.957 45.978,260.214 52.298,265.962 58.047 C 276.479 68.564,295.999 65.565,291.475 54.128 C 288.562 46.766,275.223 40.849,267.664 43.566 M128.292 52.570 C 128.816 52.649,129.673 52.649,130.198 52.570 C 130.722 52.490,130.293 52.425,129.245 52.425 C 128.196 52.425,127.768 52.490,128.292 52.570 M236.820 54.141 L 235.100 55.960 236.920 54.240 C 238.610 52.643,238.898 52.322,238.639 52.322 C 238.584 52.322,237.766 53.140,236.820 54.141 M303.961 73.112 C 303.961 73.779,304.033 74.051,304.120 73.718 C 304.207 73.384,304.207 72.839,304.120 72.505 C 304.033 72.172,303.961 72.445,303.961 73.112 M306.387 77.963 C 306.387 78.630,306.458 78.902,306.545 78.569 C 306.632 78.235,306.632 77.690,306.545 77.356 C 306.458 77.023,306.387 77.296,306.387 77.963 M304.331 81.081 C 304.331 82.129,304.396 82.558,304.475 82.034 C 304.555 81.510,304.555 80.652,304.475 80.128 C 304.396 79.604,304.331 80.033,304.331 81.081 M306.429 85.759 C 306.428 87.474,306.487 88.219,306.560 87.415 C 306.632 86.611,306.633 85.208,306.561 84.297 C 306.490 83.386,306.430 84.044,306.429 85.759 M349.013 105.163 C 349.017 105.925,349.088 106.196,349.171 105.765 C 349.254 105.334,349.251 104.710,349.164 104.379 C 349.077 104.048,349.009 104.401,349.013 105.163 M93.635 110.880 C 93.635 111.547,93.707 111.820,93.794 111.486 C 93.881 111.153,93.881 110.607,93.794 110.274 C 93.707 109.940,93.635 110.213,93.635 110.880 M349.042 113.999 C 349.042 115.428,349.104 116.013,349.178 115.298 C 349.253 114.583,349.253 113.414,349.178 112.699 C 349.104 111.985,349.042 112.569,349.042 113.999 M93.635 117.810 C 93.635 118.477,93.707 118.750,93.794 118.416 C 93.881 118.083,93.881 117.537,93.794 117.204 C 93.707 116.870,93.635 117.143,93.635 117.810 M124.653 139.884 C 125.082 139.967,125.784 139.967,126.213 139.884 C 126.642 139.802,126.291 139.734,125.433 139.734 C 124.576 139.734,124.225 139.802,124.653 139.884 M127.744 144.378 C 125.211 149.275,125.727 156.618,128.811 159.586 C 131.205 161.888,136.356 162.690,141.372 161.541 C 144.207 160.891,144.259 160.830,143.556 158.933 C 143.017 157.478,142.412 156.789,142.412 157.629 C 142.412 159.091,138.130 159.843,136.483 158.670 C 133.187 156.323,134.548 150.728,138.415 150.728 C 139.681 150.728,139.526 150.325,137.356 147.982 C 133.953 144.306,128.783 142.368,127.744 144.378 M122.079 147.956 C 122.079 149.194,122.142 149.701,122.219 149.082 C 122.296 148.462,122.296 147.449,122.219 146.830 C 122.142 146.210,122.079 146.717,122.079 147.956 M345.202 150.554 C 345.206 151.317,345.277 151.588,345.359 151.157 C 345.442 150.726,345.439 150.102,345.352 149.771 C 345.266 149.439,345.198 149.792,345.202 150.554 M209.546 152.705 C 209.975 152.787,210.677 152.787,211.105 152.705 C 211.534 152.622,211.183 152.555,210.326 152.555 C 209.468 152.555,209.117 152.622,209.546 152.705 M204.955 156.099 C 204.764 156.164,203.868 156.317,202.963 156.439 L 201.317 156.661 201.323 158.112 C 201.342 162.875,204.202 168.807,207.376 170.667 C 214.027 174.565,223.388 168.793,223.609 160.659 L 223.666 158.543 221.760 157.783 C 218.012 156.287,207.486 155.232,204.955 156.099 M216.687 160.048 C 219.870 162.146,219.583 166.126,216.126 167.821 C 212.787 169.458,208.920 165.591,210.558 162.252 C 211.801 159.717,214.638 158.697,216.687 160.048 M125.780 160.538 C 125.780 160.598,126.286 161.104,126.906 161.664 L 128.032 162.682 127.014 161.556 C 126.066 160.506,125.780 160.270,125.780 160.538 M213.011 176.613 C 213.440 176.696,214.142 176.696,214.570 176.613 C 214.999 176.531,214.648 176.463,213.791 176.463 C 212.933 176.463,212.582 176.531,213.011 176.613 M363.586 224.705 C 363.588 225.849,363.653 226.275,363.730 225.652 C 363.807 225.029,363.806 224.094,363.726 223.573 C 363.647 223.052,363.584 223.562,363.586 224.705 M370.409 245.777 C 370.409 245.837,370.916 246.344,371.535 246.903 L 372.661 247.921 371.643 246.795 C 370.695 245.745,370.409 245.509,370.409 245.777 M379.071 254.786 C 379.071 254.846,379.578 255.353,380.198 255.912 L 381.324 256.930 380.306 255.804 C 379.357 254.754,379.071 254.518,379.071 254.786 M105.770 361.573 C 105.774 362.335,105.845 362.606,105.928 362.175 C 106.011 361.744,106.007 361.121,105.921 360.789 C 105.834 360.458,105.766 360.811,105.770 361.573 M425.243 365.038 C 425.247 365.800,425.318 366.071,425.401 365.640 C 425.484 365.209,425.481 364.586,425.394 364.254 C 425.307 363.923,425.239 364.276,425.243 365.038 M106.116 378.898 C 106.120 379.660,106.191 379.931,106.274 379.500 C 106.357 379.069,106.354 378.446,106.267 378.114 C 106.180 377.783,106.113 378.136,106.116 378.898 M106.470 387.387 C 106.470 388.245,106.538 388.596,106.620 388.167 C 106.703 387.738,106.703 387.037,106.620 386.608 C 106.538 386.179,106.470 386.530,106.470 387.387 M445.599 398.302 C 446.827 399.541,447.910 400.554,448.005 400.554 C 448.100 400.554,447.174 399.541,445.946 398.302 C 444.718 397.063,443.636 396.050,443.540 396.050 C 443.445 396.050,444.372 397.063,445.599 398.302 M109.574 438.323 C 109.574 438.990,109.646 439.263,109.733 438.929 C 109.820 438.596,109.820 438.050,109.733 437.717 C 109.646 437.383,109.574 437.656,109.574 438.323 M109.921 445.253 C 109.921 445.920,109.992 446.193,110.079 445.859 C 110.167 445.526,110.167 444.980,110.079 444.647 C 109.992 444.313,109.921 444.586,109.921 445.253 M110.267 452.183 C 110.267 452.850,110.339 453.123,110.426 452.789 C 110.513 452.456,110.513 451.910,110.426 451.577 C 110.339 451.243,110.267 451.516,110.267 452.183 M110.660 466.563 C 110.661 468.468,110.719 469.204,110.789 468.197 C 110.860 467.190,110.859 465.631,110.788 464.732 C 110.717 463.833,110.659 464.657,110.660 466.563 M180.268 481.116 C 180.271 481.878,180.342 482.149,180.425 481.718 C 180.508 481.287,180.505 480.663,180.418 480.332 C 180.332 480.001,180.264 480.353,180.268 481.116 M178.215 488.739 C 178.216 490.073,178.279 490.576,178.354 489.857 C 178.429 489.138,178.428 488.047,178.351 487.432 C 178.275 486.817,178.213 487.405,178.215 488.739 M180.451 486.746 C 180.387 486.889,180.426 489.423,180.539 492.377 L 180.743 497.748 180.808 492.117 C 180.867 487.006,180.798 485.972,180.451 486.746 M107.663 487.093 C 107.587 487.236,107.640 487.743,107.782 488.219 C 108.022 489.029,108.041 489.012,108.074 487.959 C 108.107 486.873,107.954 486.550,107.663 487.093 M109.935 490.644 C 109.935 491.502,110.003 491.853,110.085 491.424 C 110.168 490.995,110.168 490.294,110.085 489.865 C 110.003 489.436,109.935 489.787,109.935 490.644 M107.502 496.362 C 107.506 497.124,107.577 497.395,107.660 496.964 C 107.743 496.533,107.740 495.909,107.653 495.578 C 107.566 495.247,107.499 495.599,107.502 496.362 M109.581 499.134 C 109.585 499.896,109.656 500.167,109.739 499.736 C 109.822 499.305,109.819 498.681,109.732 498.350 C 109.645 498.019,109.578 498.371,109.581 499.134 M180.667 504.678 C 180.667 507.727,180.720 508.928,180.785 507.347 C 180.849 505.765,180.849 503.271,180.784 501.803 C 180.719 500.335,180.667 501.629,180.667 504.678 M107.156 504.678 C 107.160 505.440,107.231 505.711,107.314 505.280 C 107.397 504.849,107.393 504.225,107.307 503.894 C 107.220 503.563,107.152 503.915,107.156 504.678 M109.235 507.450 C 109.239 508.212,109.310 508.483,109.393 508.052 C 109.476 507.621,109.472 506.997,109.386 506.666 C 109.299 506.335,109.231 506.687,109.235 507.450 M106.809 512.647 C 106.813 513.410,106.884 513.681,106.967 513.250 C 107.050 512.819,107.047 512.195,106.960 511.864 C 106.873 511.532,106.806 511.885,106.809 512.647 M178.182 512.821 C 178.182 513.488,178.253 513.760,178.340 513.427 C 178.427 513.093,178.427 512.548,178.340 512.214 C 178.253 511.881,178.182 512.153,178.182 512.821 M177.842 520.963 C 177.846 521.726,177.917 521.997,178.000 521.566 C 178.083 521.135,178.079 520.511,177.993 520.180 C 177.906 519.848,177.838 520.201,177.842 520.963 M191.615 536.542 C 191.615 536.637,192.238 537.033,193.001 537.422 C 193.763 537.811,194.387 538.051,194.387 537.956 C 194.387 537.861,193.763 537.464,193.001 537.076 C 192.238 536.687,191.615 536.446,191.615 536.542 M195.426 538.635 C 195.903 538.907,196.448 539.130,196.639 539.130 C 196.830 539.130,196.596 538.907,196.119 538.635 C 195.643 538.362,195.097 538.140,194.906 538.140 C 194.716 538.140,194.950 538.362,195.426 538.635 M176.476 542.446 C 176.478 543.590,176.543 544.016,176.620 543.393 C 176.697 542.770,176.695 541.835,176.616 541.314 C 176.537 540.793,176.474 541.303,176.476 542.446 M309.866 554.401 C 309.866 555.258,309.933 555.609,310.016 555.180 C 310.098 554.751,310.098 554.050,310.016 553.621 C 309.933 553.192,309.866 553.543,309.866 554.401 M309.512 566.008 C 309.516 566.771,309.587 567.042,309.670 566.611 C 309.753 566.180,309.750 565.556,309.663 565.225 C 309.576 564.893,309.508 565.246,309.512 566.008 M408.962 572.667 C 409.489 572.747,410.268 572.745,410.694 572.662 C 411.120 572.580,410.690 572.515,409.737 572.518 C 408.784 572.520,408.435 572.588,408.962 572.667 M80.821 590.345 C 81.726 590.416,83.208 590.416,84.113 590.345 C 85.018 590.273,84.278 590.215,82.467 590.215 C 80.657 590.215,79.916 590.273,80.821 590.345 M97.453 590.685 C 97.977 590.764,98.835 590.764,99.359 590.685 C 99.883 590.605,99.454 590.540,98.406 590.540 C 97.358 590.540,96.929 590.605,97.453 590.685 M127.083 590.682 C 127.514 590.765,128.138 590.761,128.469 590.675 C 128.800 590.588,128.448 590.520,127.685 590.524 C 126.923 590.528,126.652 590.599,127.083 590.682 " stroke="none" fill="#8c584c" fill-rule="evenodd"></path><path id="path3" d="M207.814 7.868 C 208.242 7.950,208.944 7.950,209.373 7.868 C 209.802 7.785,209.451 7.717,208.593 7.717 C 207.736 7.717,207.385 7.785,207.814 7.868 M255.111 7.862 C 255.444 7.949,255.990 7.949,256.324 7.862 C 256.657 7.775,256.384 7.703,255.717 7.703 C 255.050 7.703,254.777 7.775,255.111 7.862 M95.100 16.534 C 95.405 30.155,113.383 50.612,119.918 44.774 C 122.212 42.724,121.420 35.734,118.241 29.986 C 116.367 26.598,106.416 18.937,98.011 14.411 L 95.016 12.798 95.100 16.534 M277.118 30.391 C 277.549 30.473,278.172 30.470,278.504 30.384 C 278.835 30.297,278.482 30.229,277.720 30.233 C 276.958 30.237,276.687 30.308,277.118 30.391 M274.428 32.753 C 274.142 32.809,272.739 33.045,271.310 33.277 C 264.651 34.357,256.453 38.340,248.012 44.596 C 245.593 46.390,245.044 46.956,245.279 47.415 C 245.441 47.732,245.675 48.651,245.798 49.459 C 248.720 68.596,285.038 83.451,301.699 72.323 L 303.848 70.887 303.670 69.314 C 302.260 56.864,299.131 47.416,294.389 41.295 C 292.921 39.400,290.322 36.754,290.877 37.719 C 291.025 37.977,289.676 37.410,287.877 36.458 C 286.079 35.506,283.719 34.447,282.634 34.104 C 281.318 33.690,280.805 33.384,281.095 33.189 C 281.356 33.015,281.162 32.982,280.616 33.108 C 280.103 33.227,279.600 33.156,279.470 32.946 C 279.264 32.612,275.818 32.481,274.428 32.753 M278.760 44.016 C 290.282 47.634,296.145 58.248,289.091 62.721 C 280.122 68.410,262.139 60.086,262.139 50.246 C 262.139 44.180,269.954 41.251,278.760 44.016 M235.093 52.755 L 231.982 55.960 235.187 52.849 C 238.164 49.959,238.550 49.550,238.298 49.550 C 238.247 49.550,236.804 50.992,235.093 52.755 M131.410 52.560 C 131.744 52.648,132.290 52.648,132.623 52.560 C 132.957 52.473,132.684 52.402,132.017 52.402 C 131.350 52.402,131.077 52.473,131.410 52.560 M113.633 57.779 L 112.439 59.078 113.739 57.884 C 114.453 57.227,115.038 56.643,115.038 56.585 C 115.038 56.320,114.745 56.570,113.633 57.779 M106.109 66.182 C 106.109 66.849,106.181 67.121,106.268 66.788 C 106.355 66.454,106.355 65.909,106.268 65.575 C 106.181 65.242,106.109 65.515,106.109 66.182 M303.961 75.191 C 303.961 75.858,304.033 76.130,304.120 75.797 C 304.207 75.463,304.207 74.918,304.120 74.584 C 304.033 74.251,303.961 74.524,303.961 75.191 M306.387 75.884 C 306.387 76.551,306.458 76.823,306.545 76.490 C 306.632 76.156,306.632 75.611,306.545 75.277 C 306.458 74.944,306.387 75.217,306.387 75.884 M349.045 108.974 C 349.046 110.499,349.107 111.080,349.180 110.265 C 349.253 109.450,349.252 108.202,349.178 107.493 C 349.103 106.783,349.043 107.450,349.045 108.974 M93.672 114.345 C 93.672 115.774,93.733 116.359,93.808 115.644 C 93.882 114.930,93.882 113.760,93.808 113.046 C 93.733 112.331,93.672 112.916,93.672 114.345 M225.723 171.951 L 224.705 173.077 225.832 172.059 C 226.451 171.499,226.958 170.993,226.958 170.933 C 226.958 170.665,226.672 170.901,225.723 171.951 M363.213 233.888 C 363.213 234.555,363.284 234.828,363.371 234.494 C 363.458 234.161,363.458 233.615,363.371 233.281 C 363.284 232.948,363.213 233.221,363.213 233.888 M377.166 252.945 C 378.104 253.898,378.950 254.678,379.045 254.678 C 379.141 254.678,378.451 253.898,377.512 252.945 C 376.574 251.992,375.728 251.213,375.632 251.213 C 375.537 251.213,376.227 251.992,377.166 252.945 M425.272 368.676 C 425.272 370.106,425.334 370.690,425.408 369.976 C 425.483 369.261,425.483 368.092,425.408 367.377 C 425.334 366.662,425.272 367.247,425.272 368.676 M106.116 376.473 C 106.120 377.235,106.191 377.506,106.274 377.075 C 106.357 376.644,106.354 376.020,106.267 375.689 C 106.180 375.358,106.113 375.710,106.116 376.473 M425.272 378.725 C 425.272 380.154,425.334 380.739,425.408 380.024 C 425.483 379.310,425.483 378.140,425.408 377.426 C 425.334 376.711,425.272 377.296,425.272 378.725 M106.456 384.962 C 106.456 385.629,106.527 385.902,106.614 385.568 C 106.702 385.235,106.702 384.689,106.614 384.356 C 106.527 384.022,106.456 384.295,106.456 384.962 M109.921 443.174 C 109.921 443.841,109.992 444.114,110.079 443.780 C 110.167 443.447,110.167 442.901,110.079 442.568 C 109.992 442.234,109.921 442.507,109.921 443.174 M110.267 450.104 C 110.267 450.771,110.339 451.044,110.426 450.710 C 110.513 450.377,110.513 449.831,110.426 449.498 C 110.339 449.164,110.267 449.437,110.267 450.104 M110.645 461.192 C 110.645 462.431,110.707 462.937,110.784 462.318 C 110.861 461.699,110.861 460.685,110.784 460.066 C 110.707 459.446,110.645 459.953,110.645 461.192 M110.628 471.240 C 110.628 472.098,110.696 472.449,110.778 472.020 C 110.861 471.591,110.861 470.890,110.778 470.461 C 110.696 470.032,110.628 470.383,110.628 471.240 M110.286 482.502 C 110.289 483.455,110.356 483.803,110.436 483.277 C 110.515 482.750,110.513 481.970,110.431 481.544 C 110.349 481.118,110.284 481.549,110.286 482.502 M180.626 484.927 C 180.628 485.880,180.696 486.229,180.775 485.702 C 180.855 485.175,180.853 484.396,180.771 483.970 C 180.688 483.543,180.623 483.974,180.626 484.927 M178.215 493.243 C 178.216 494.577,178.279 495.081,178.354 494.362 C 178.429 493.643,178.428 492.551,178.351 491.936 C 178.275 491.321,178.213 491.909,178.215 493.243 M109.928 493.243 C 109.932 494.006,110.003 494.277,110.086 493.846 C 110.169 493.415,110.165 492.791,110.079 492.460 C 109.992 492.128,109.924 492.481,109.928 493.243 M107.495 494.109 C 107.495 494.777,107.567 495.049,107.654 494.716 C 107.741 494.382,107.741 493.837,107.654 493.503 C 107.567 493.170,107.495 493.442,107.495 494.109 M109.574 501.386 C 109.574 502.053,109.646 502.326,109.733 501.992 C 109.820 501.659,109.820 501.113,109.733 500.780 C 109.646 500.446,109.574 500.719,109.574 501.386 M97.001 502.339 L 95.807 503.638 97.107 502.444 C 98.316 501.333,98.565 501.040,98.301 501.040 C 98.243 501.040,97.658 501.624,97.001 502.339 M107.156 502.252 C 107.160 503.015,107.231 503.286,107.314 502.855 C 107.397 502.424,107.393 501.800,107.307 501.469 C 107.220 501.137,107.152 501.490,107.156 502.252 M109.228 509.702 C 109.228 510.369,109.299 510.642,109.386 510.308 C 109.474 509.975,109.474 509.429,109.386 509.096 C 109.299 508.762,109.228 509.035,109.228 509.702 M106.802 510.395 C 106.802 511.062,106.874 511.335,106.961 511.001 C 107.048 510.668,107.048 510.122,106.961 509.789 C 106.874 509.455,106.802 509.728,106.802 510.395 M178.189 510.568 C 178.192 511.331,178.263 511.602,178.346 511.171 C 178.429 510.740,178.426 510.116,178.339 509.785 C 178.253 509.453,178.185 509.806,178.189 510.568 M180.659 514.033 C 180.660 516.320,180.716 517.211,180.784 516.012 C 180.851 514.813,180.851 512.942,180.782 511.854 C 180.714 510.766,180.658 511.746,180.659 514.033 M177.835 518.711 C 177.835 519.378,177.906 519.651,177.994 519.317 C 178.081 518.984,178.081 518.438,177.994 518.105 C 177.906 517.771,177.835 518.044,177.835 518.711 M387.722 521.396 L 385.828 523.389 387.821 521.495 C 388.916 520.453,389.813 519.557,389.813 519.502 C 389.813 519.245,389.482 519.545,387.722 521.396 M94.248 536.556 C 92.828 537.985,91.745 539.155,91.840 539.155 C 91.935 539.155,93.175 537.985,94.595 536.556 C 96.014 535.126,97.098 533.957,97.003 533.957 C 96.907 533.957,95.668 535.126,94.248 536.556 M54.827 543.659 C 54.827 544.326,54.899 544.599,54.986 544.265 C 55.073 543.932,55.073 543.386,54.986 543.053 C 54.899 542.719,54.827 542.992,54.827 543.659 M214.748 543.558 C 215.179 543.640,215.802 543.637,216.134 543.551 C 216.465 543.464,216.112 543.396,215.350 543.400 C 214.588 543.404,214.317 543.475,214.748 543.558 M312.664 549.896 C 312.664 551.516,312.724 552.179,312.797 551.369 C 312.870 550.559,312.870 549.233,312.797 548.423 C 312.724 547.613,312.664 548.276,312.664 549.896 M309.532 562.890 C 309.534 564.033,309.599 564.459,309.676 563.836 C 309.753 563.214,309.751 562.278,309.672 561.757 C 309.593 561.237,309.530 561.746,309.532 562.890 M455.453 565.575 L 454.435 566.701 455.561 565.684 C 456.611 564.735,456.847 564.449,456.579 564.449 C 456.519 564.449,456.013 564.956,455.453 565.575 M395.790 572.324 C 396.505 572.399,397.674 572.399,398.389 572.324 C 399.103 572.250,398.519 572.189,397.089 572.189 C 395.660 572.189,395.075 572.250,395.790 572.324 M412.080 572.667 C 412.607 572.747,413.387 572.745,413.813 572.662 C 414.239 572.580,413.808 572.515,412.855 572.518 C 411.902 572.520,411.554 572.588,412.080 572.667 M69.417 576.230 C 69.417 577.659,69.478 578.244,69.552 577.529 C 69.627 576.815,69.627 575.645,69.552 574.931 C 69.478 574.216,69.417 574.801,69.417 576.230 M214.564 579.695 C 214.564 580.362,214.635 580.635,214.723 580.301 C 214.810 579.968,214.810 579.422,214.723 579.089 C 214.635 578.755,214.564 579.028,214.564 579.695 M86.885 590.344 C 87.695 590.417,89.020 590.417,89.830 590.344 C 90.640 590.271,89.977 590.211,88.358 590.211 C 86.738 590.211,86.075 590.271,86.885 590.344 M101.084 590.687 C 101.699 590.763,102.790 590.764,103.509 590.689 C 104.228 590.614,103.725 590.552,102.391 590.550 C 101.057 590.549,100.469 590.610,101.084 590.687 M124.658 590.682 C 125.089 590.765,125.712 590.761,126.044 590.675 C 126.375 590.588,126.022 590.520,125.260 590.524 C 124.498 590.528,124.227 590.599,124.658 590.682 " stroke="none" fill="#ac877b" fill-rule="evenodd"></path></g></svg>