<?xml version="1.0" standalone="no"?>
<!DOCTYPE svg PUBLIC "-//W3C//DTD SVG 20010904//EN"
 "http://www.w3.org/TR/2001/REC-SVG-20010904/DTD/svg10.dtd">
<svg version="1.0" xmlns="http://www.w3.org/2000/svg"
 width="234.000000pt" height="199.000000pt" viewBox="0 0 234.000000 199.000000"
 preserveAspectRatio="xMidYMid meet">
<metadata>
Created by potrace 1.10, written by Peter Selinger 2001-2011
</metadata>
<g transform="translate(0.000000,199.000000) scale(0.100000,-0.100000)"
fill="#5d11c5" stroke="none">
<path d="M1075 1973 c-149 -27 -205 -44 -315 -97 -147 -70 -292 -198 -384
-341 -143 -221 -188 -487 -127 -750 22 -92 30 -114 70 -195 63 -130 93 -172
181 -260 135 -135 286 -220 470 -263 84 -20 82 -20 235 -19 91 0 148 5 190 17
33 9 74 20 90 24 17 4 39 12 50 18 11 5 43 20 70 33 123 57 256 165 340 275
73 96 138 221 164 315 7 25 17 60 22 77 16 53 22 251 10 333 -18 118 -19 122
-41 180 -12 30 -25 66 -30 80 -11 33 -39 85 -75 139 -17 24 -37 54 -46 67 -20
31 -136 145 -169 167 -14 9 -45 30 -69 48 -24 17 -54 35 -65 40 -12 5 -28 13
-36 17 -54 30 -92 45 -173 66 -51 13 -99 24 -107 25 -42 4 -238 8 -255 4z m93
-50 l25 -33 -31 0 c-22 0 -36 9 -57 36 l-27 35 32 -3 c23 -2 40 -13 58 -35z
m64 20 c16 -19 33 -63 24 -63 -21 0 -54 23 -69 49 l-18 31 24 0 c13 0 31 -8
39 -17z m63 11 c14 -6 50 -73 42 -80 -12 -12 -51 15 -68 47 -20 41 -14 48 26
33z m-221 -20 c9 -8 21 -24 26 -35 9 -16 7 -19 -13 -19 -21 0 -77 46 -77 63 0
14 49 7 64 -9z m309 -1 c22 -26 33 -73 16 -73 -23 0 -36 13 -52 53 -15 35 -15
37 2 37 10 0 25 -8 34 -17z m-375 -26 c27 -25 28 -33 3 -40 -27 -7 -92 49 -72
62 17 11 39 4 69 -22z m454 6 c16 -19 30 -83 17 -83 -16 0 -47 37 -57 68 -10
28 -9 32 7 32 10 0 25 -8 33 -17z m-526 -30 c25 -27 25 -27 4 -35 -16 -6 -30
-1 -56 18 -18 14 -31 30 -28 35 11 18 56 8 80 -18z m591 12 c22 -15 37 -85 18
-85 -22 0 -34 17 -43 58 -11 46 -7 50 25 27z m-663 -40 l30 -24 -27 -6 c-29
-8 -102 29 -91 46 10 17 59 8 88 -16z m740 6 c12 -13 16 -32 14 -58 l-3 -38
-22 23 c-15 14 -23 34 -23 57 0 39 9 44 34 16z m-244 -11 c10 -5 30 -10 44
-10 14 0 28 -4 31 -10 3 -5 19 -10 36 -10 16 0 29 -4 29 -10 0 -5 12 -13 28
-16 63 -16 233 -138 299 -215 146 -170 217 -378 207 -604 -2 -49 -4 -100 -4
-112 0 -12 -5 -25 -10 -28 -6 -3 -10 -16 -10 -27 0 -12 -5 -38 -11 -57 -16
-48 -81 -183 -96 -199 -7 -7 -13 -17 -13 -21 0 -5 -10 -19 -22 -33 -13 -14
-39 -43 -58 -65 -34 -39 -145 -136 -165 -144 -5 -2 -35 -17 -65 -34 -53 -28
-164 -71 -205 -80 -98 -20 -237 -24 -325 -10 -19 3 -52 8 -73 11 -20 4 -40 10
-43 15 -3 5 -12 9 -20 9 -18 0 -156 66 -199 94 -40 27 -149 119 -154 129 -1 4
-11 16 -21 25 -23 21 -100 137 -121 183 -34 72 -69 175 -69 206 0 11 -3 23 -7
27 -4 4 -8 22 -9 39 -5 136 -5 168 1 212 19 130 73 273 139 370 36 52 118 150
132 158 8 4 25 18 39 30 57 51 83 68 165 107 25 11 58 28 73 35 16 8 39 15 52
15 13 0 26 4 29 9 3 5 16 9 28 9 13 1 46 5 73 10 63 11 269 6 295 -8z m-573
-24 l36 -25 -28 -7 c-19 -5 -39 -1 -62 12 -32 17 -33 19 -17 31 24 18 30 17
71 -11z m892 0 c7 -8 11 -33 9 -56 -3 -37 -5 -40 -20 -28 -21 15 -31 98 -12
98 6 0 17 -6 23 -14z m-965 -33 c28 -13 33 -19 25 -30 -6 -7 -18 -13 -27 -13
-21 0 -82 23 -82 30 0 5 31 24 47 29 1 1 18 -7 37 -16z m1030 -12 c14 -15 16
-29 11 -61 -7 -40 -8 -41 -26 -24 -13 12 -19 31 -19 61 0 47 8 53 34 24z
m-1094 -36 c35 -18 36 -21 12 -34 -13 -7 -32 -6 -62 3 l-43 13 24 16 c29 21
33 21 69 2z m1165 -75 c-7 -40 -8 -41 -26 -24 -20 18 -23 42 -12 82 6 24 6 24
25 4 17 -16 19 -27 13 -62z m-1195 10 c0 -4 -10 -12 -22 -19 -18 -9 -31 -9
-63 2 l-40 14 29 15 c23 12 37 13 63 5 18 -6 33 -13 33 -17z m1246 -5 c13 -20
14 -30 4 -61 -12 -35 -13 -36 -31 -18 -16 17 -17 25 -7 62 6 23 12 42 14 42 2
0 11 -11 20 -25z m-1312 -35 c19 0 19 -1 1 -20 -14 -16 -29 -20 -62 -18 -24 1
-43 5 -43 9 0 16 46 40 65 35 11 -3 29 -6 39 -6z m1376 -52 c0 -17 -15 -54
-26 -67 -3 -3 -10 4 -17 14 -10 13 -11 28 -4 61 10 42 11 43 29 27 10 -9 18
-25 18 -35z m-1421 -15 c3 -2 -2 -10 -11 -19 -10 -10 -29 -14 -59 -12 l-44 3
24 22 c18 17 31 21 55 16 17 -3 33 -8 35 -10z m1471 -45 c0 -17 -30 -68 -40
-68 -19 0 -22 48 -5 81 17 31 18 32 31 14 8 -10 14 -23 14 -27z m-1510 -15 c0
-21 -37 -43 -72 -43 -42 0 -46 5 -21 32 15 17 93 27 93 11z m1545 -40 c4 -18
1 -34 -12 -51 -36 -48 -58 -12 -28 45 22 40 31 41 40 6z m-1595 -43 c-9 -18
-21 -22 -82 -35 -22 -4 -23 4 -2 33 11 16 25 22 55 22 37 0 39 -2 29 -20z
m1630 -40 c0 -16 -11 -41 -23 -56 l-24 -27 -7 26 c-4 19 0 37 16 61 26 39 38
38 38 -4z m-1660 -19 c0 -13 -29 -41 -43 -41 -7 0 -22 -3 -34 -6 -29 -8 -30 9
-3 36 20 20 80 28 80 11z m1690 -60 c0 -28 -41 -77 -53 -64 -13 12 -7 45 14
74 24 34 39 30 39 -10z m-1720 -20 c-12 -24 -21 -30 -61 -41 -27 -8 -30 -7
-27 13 3 24 40 47 76 47 19 0 21 -3 12 -19z m1725 -91 c-16 -17 -32 -30 -37
-30 -18 0 -6 46 19 72 27 28 28 29 37 8 7 -16 3 -27 -19 -50z m-1749 13 c-6
-20 -74 -58 -84 -48 -13 13 20 55 50 63 39 11 42 9 34 -15z m1757 -99 c-35
-29 -43 -30 -43 -2 0 12 15 37 33 56 l32 33 3 -32 c3 -25 -2 -37 -25 -55z
m-1763 40 c0 -17 -24 -44 -55 -63 l-35 -20 0 23 c0 31 37 63 78 65 6 1 12 -2
12 -5z m1796 -87 c-3 -12 -19 -30 -36 -39 l-30 -17 0 28 c0 22 8 34 33 50 34
21 43 15 33 -22z m-1806 7 c0 -15 -23 -45 -50 -64 l-30 -21 0 30 c0 23 7 34
28 45 28 16 52 20 52 10z m1810 -74 c0 -25 -6 -33 -35 -47 -39 -19 -50 -14
-40 16 4 15 50 53 73 60 1 1 2 -13 2 -29z m-1851 -63 c-19 -15 -35 -23 -37
-17 -8 23 8 56 35 72 27 16 28 16 32 -5 2 -15 -7 -30 -30 -50z m1847 -33 c-6
-15 -74 -49 -82 -41 -12 12 17 52 47 66 36 17 48 9 35 -25z m-1806 3 c0 -20
-48 -77 -65 -77 -3 0 -5 13 -5 29 0 20 8 36 28 50 35 26 42 26 42 -2z m1791
-85 c-12 -23 -81 -47 -81 -28 0 19 22 42 55 59 25 13 31 13 33 2 2 -8 -1 -22
-7 -33z m-1807 -43 c-20 -21 -30 -26 -36 -17 -12 19 1 50 31 75 l26 21 3 -25
c2 -17 -5 -35 -24 -54z m1795 -23 c-7 -15 -23 -29 -38 -32 -14 -3 -32 -8 -39
-10 -9 -3 -12 4 -10 18 2 16 16 27 48 39 25 9 46 16 48 14 1 -1 -3 -14 -9 -29z
m-1749 1 c0 -26 -43 -90 -53 -80 -14 14 -6 58 15 80 27 29 38 29 38 0z m10
-124 c-16 -31 -26 -40 -31 -31 -15 23 -10 54 13 83 19 25 22 26 31 9 8 -13 4
-29 -13 -61z m1711 38 c-11 -19 -75 -40 -87 -28 -13 13 19 46 53 54 42 10 50
4 34 -26z m-1678 -114 l-21 -42 -12 27 c-11 23 -10 31 11 64 22 36 23 37 33
15 7 -17 5 -32 -11 -64z m1657 62 c0 -22 -42 -49 -75 -49 -39 0 -44 9 -17 32
26 24 92 36 92 17z m-1600 -88 c-1 -9 -9 -31 -19 -49 l-17 -33 -12 25 c-15 34
13 103 35 85 7 -6 13 -19 13 -28z m1561 11 c-17 -32 -37 -42 -75 -40 -20 2
-36 6 -36 9 0 15 38 38 70 42 19 2 39 5 43 5 4 1 3 -6 -2 -16z m-1523 -83 c2
-19 -4 -43 -12 -54 -14 -19 -15 -19 -27 7 -9 22 -9 33 1 58 16 39 34 34 38
-11z m1482 20 c0 -3 -9 -14 -19 -23 -13 -12 -32 -16 -62 -14 l-44 3 22 22 c15
15 32 21 62 20 22 -1 41 -5 41 -8z m-1431 -83 c0 -17 -4 -40 -8 -51 -7 -18 -9
-18 -24 6 -14 20 -15 31 -5 62 9 29 14 34 25 26 7 -6 13 -26 12 -43z m1357 24
c30 0 31 -15 1 -35 -18 -12 -30 -12 -62 -4 l-39 11 23 20 c14 10 31 16 38 13
8 -3 26 -5 39 -5z m-1297 -89 c0 -14 -4 -34 -8 -44 -6 -17 -8 -17 -25 2 -14
16 -16 28 -11 61 7 40 8 41 26 24 10 -9 19 -29 18 -43z m1234 33 c36 -6 37 -8
21 -25 -19 -21 -55 -25 -85 -8 -16 8 -18 13 -8 25 13 16 18 16 72 8z m-1173
-101 c0 -40 -2 -43 -19 -34 -25 14 -33 37 -25 78 6 32 7 33 25 17 13 -12 19
-31 19 -61z m1111 46 c41 -13 42 -25 2 -40 -34 -13 -90 15 -72 37 14 17 21 17
70 3z m-1059 -36 c17 -15 27 -93 11 -93 -21 0 -43 37 -43 72 0 42 5 46 32 21z
m988 -9 c33 -13 38 -19 29 -30 -15 -18 -43 -18 -80 2 -29 15 -30 16 -12 29 22
18 15 18 63 -1z m-904 -69 c9 -48 3 -58 -24 -40 -16 12 -22 26 -22 56 0 36 2
39 20 29 10 -6 22 -26 26 -45z m843 24 c27 -16 31 -23 20 -30 -23 -14 -55 -10
-80 11 -21 17 -22 21 -9 30 21 14 31 13 69 -11z m-773 -48 c3 -14 8 -34 11
-43 5 -22 -6 -23 -34 -3 -13 9 -22 28 -25 54 -3 37 -2 38 20 28 12 -6 25 -22
28 -36z m706 8 c23 -17 27 -24 16 -30 -21 -14 -44 -10 -72 12 -49 39 3 56 56
18z m-654 -6 c11 -10 25 -33 30 -50 10 -29 9 -33 -7 -33 -24 0 -41 21 -51 65
-9 39 -2 43 28 18z m576 -22 c28 -23 33 -30 20 -35 -30 -12 -51 -6 -78 23 -29
30 -28 32 15 40 3 0 23 -12 43 -28z m-484 -10 c24 -46 30 -71 16 -71 -22 0
-55 33 -62 63 -5 23 -3 27 15 27 11 0 25 -9 31 -19z m408 -16 l37 -34 -37 -1
c-28 0 -41 6 -58 27 -16 20 -18 28 -8 35 20 12 26 10 66 -27z m-332 1 c6 -6
16 -23 22 -38 10 -25 9 -28 -6 -28 -27 0 -48 21 -60 58 -11 32 -10 33 11 26
12 -3 27 -11 33 -18z m76 -3 c9 -10 21 -28 27 -40 11 -21 9 -23 -14 -23 -18 0
-31 10 -45 33 -11 17 -20 35 -20 40 0 14 37 7 52 -10z m89 -14 c35 -38 36 -49
6 -49 -25 0 -46 19 -66 58 -10 19 -9 22 10 22 11 0 34 -14 50 -31z m94 -5 l27
-35 -32 3 c-23 2 -40 13 -58 36 l-25 32 31 0 c22 0 36 -9 57 -36z"/>
<path d="M1308 1812 c-16 -2 -28 -7 -28 -12 0 -16 12 -40 21 -40 4 0 6 6 3 14
-3 8 -1 17 5 21 7 4 8 -1 4 -12 -5 -15 -4 -16 8 -7 14 12 68 0 56 -12 -3 -3
-14 -1 -25 5 -15 8 -23 7 -32 -4 -7 -8 -23 -15 -36 -15 -13 0 -24 -4 -24 -8 0
-17 13 -21 34 -10 20 10 20 9 5 -7 -13 -13 -21 -15 -37 -6 -15 8 -23 8 -27 0
-12 -18 9 -27 73 -28 18 -1 31 -5 28 -10 -3 -5 -24 -7 -46 -4 -25 4 -40 2 -40
-5 0 -6 14 -12 32 -14 25 -2 34 -9 39 -28 5 -21 7 -22 13 -8 6 12 16 15 42 11
43 -7 46 13 4 22 -16 4 -30 11 -30 16 0 14 12 11 48 -11 37 -23 58 -25 68 -9
8 14 -14 29 -43 29 -13 0 -23 5 -23 11 0 6 6 9 14 6 20 -8 28 4 15 20 -9 10
-8 18 6 33 16 18 16 20 1 26 -9 3 -16 12 -16 20 0 17 -17 19 -22 2 -3 -8 -12
-8 -34 3 -16 8 -41 13 -56 11z m112 -52 c8 -5 11 -10 5 -10 -5 0 -17 5 -25 10
-8 5 -10 10 -5 10 6 0 17 -5 25 -10z m-73 -34 c-4 -9 -14 -16 -24 -16 -13 0
-15 2 -5 9 7 4 12 12 11 17 -3 20 2 27 12 17 7 -7 9 -19 6 -27z m43 4 c-7 -4
-9 -13 -6 -19 4 -6 0 -11 -8 -11 -19 0 -20 5 -5 31 5 11 15 17 21 13 7 -4 6
-9 -2 -14z"/>
<path d="M944 1789 c-4 -8 -7 -21 -6 -30 2 -10 -9 -21 -28 -29 -30 -12 -39
-33 -20 -45 17 -11 70 34 63 53 -6 14 -5 15 9 2 9 -8 12 -16 7 -18 -5 -2 -9
-15 -9 -28 0 -14 -11 -35 -25 -48 -30 -28 -33 -56 -6 -56 28 0 46 28 46 75 l0
42 32 -24 c17 -13 47 -27 66 -30 28 -4 37 -1 46 15 10 18 7 21 -22 27 -56 11
-97 26 -97 36 0 5 8 9 19 9 21 0 45 25 37 38 -6 11 -54 4 -62 -9 -9 -16 -24
-10 -33 13 -6 17 -9 19 -17 7z"/>
<path d="M700 1659 c0 -5 5 -7 10 -4 6 3 10 8 10 11 0 2 -4 4 -10 4 -5 0 -10
-5 -10 -11z"/>
<path d="M1620 1656 c0 -15 37 -29 52 -20 13 9 -12 34 -33 34 -11 0 -19 -6
-19 -14z"/>
<path d="M654 1629 c-3 -6 5 -20 20 -32 l26 -20 -27 -36 c-15 -20 -38 -46 -52
-58 -24 -21 -24 -22 -6 -29 11 -4 30 -16 43 -27 20 -19 22 -19 22 -3 0 10 -9
25 -20 34 -20 17 -19 18 31 74 44 50 52 56 69 46 28 -18 37 -1 12 22 -26 24
-38 25 -46 4 -5 -14 -10 -12 -27 10 -22 28 -34 32 -45 15z"/>
<path d="M1592 1623 c3 -15 23 -20 56 -14 8 2 -39 30 -51 31 -5 0 -7 -8 -5
-17z"/>
<path d="M1710 1606 c0 -8 8 -19 17 -25 10 -5 15 -12 12 -16 -4 -3 -14 1 -22
10 -17 16 -27 19 -27 8 0 -5 18 -23 40 -41 33 -27 43 -31 60 -22 l20 11 -20
21 c-11 12 -20 28 -20 37 0 8 -3 11 -7 8 -3 -4 -17 0 -30 8 -20 13 -23 14 -23
1z m60 -67 c0 -6 -4 -7 -10 -4 -5 3 -10 11 -10 16 0 6 5 7 10 4 6 -3 10 -11
10 -16z"/>
<path d="M618 1590 c-14 -16 -13 -19 11 -33 21 -12 28 -13 38 -2 9 10 7 17
-11 33 -22 19 -24 19 -38 2z"/>
<path d="M1557 1594 c-19 -19 -6 -33 26 -27 49 9 51 17 7 28 -14 3 -29 3 -33
-1z"/>
<path d="M1070 1574 c-36 -7 -74 -18 -85 -22 -11 -5 -33 -15 -50 -23 -47 -21
-146 -98 -185 -142 -113 -131 -161 -324 -127 -507 6 -32 38 -112 67 -169 27
-50 153 -181 175 -181 8 0 15 -4 15 -9 0 -5 33 -23 73 -39 170 -71 331 -66
494 15 100 49 195 144 245 244 56 113 68 167 64 294 -4 118 -18 169 -77 272
-32 56 -133 163 -177 187 -156 87 -285 111 -432 80z m94 -10 c16 -16 21 -34 9
-34 -10 0 -43 32 -43 42 0 13 17 9 34 -8z m50 0 c16 -16 21 -34 9 -34 -10 0
-43 32 -43 42 0 13 17 9 34 -8z m56 -19 c0 -21 -17 -18 -30 4 -15 28 -13 33
10 21 11 -6 20 -17 20 -25z m-140 5 c8 -16 8 -20 -3 -20 -8 0 -22 9 -32 20
-18 19 -17 20 3 20 12 0 26 -9 32 -20z m180 -1 c7 -11 9 -23 6 -26 -7 -7 -24
5 -36 28 -8 15 -7 19 4 19 9 0 20 -9 26 -21z m-232 -1 c7 -7 12 -16 12 -20 0
-15 -27 -8 -45 12 -18 19 -17 20 1 20 11 0 25 -5 32 -12z m270 0 c7 -7 12 -21
12 -31 0 -16 -3 -17 -14 -8 -15 13 -28 51 -17 51 4 0 12 -5 19 -12z m-307 -36
c-5 -2 -20 2 -32 8 -17 10 -19 14 -8 21 9 5 20 2 32 -9 10 -9 14 -18 8 -20z
m362 2 c5 -29 -8 -32 -23 -5 -14 27 -13 41 4 35 8 -3 16 -16 19 -30z m-414 3
c6 -8 8 -17 5 -20 -8 -7 -54 14 -54 25 0 13 36 9 49 -5z m171 -116 l0 -129
-55 -17 c-56 -18 -93 -45 -61 -45 9 0 16 -5 16 -10 0 -21 -57 22 -139 104
l-83 84 43 32 c62 45 134 78 209 94 36 8 66 14 68 15 1 1 2 -57 2 -128z m32
107 c-6 -6 -15 -8 -19 -4 -4 4 -1 11 7 16 8 5 17 7 19 4 3 -2 -1 -10 -7 -16z
m246 10 c16 -16 16 -51 0 -46 -13 5 -31 58 -19 58 4 0 12 -5 19 -12z m-96 -19
c35 -12 91 -40 126 -63 l62 -40 -91 -92 -92 -92 -26 19 c-24 18 -57 29 -88 31
-16 2 -16 6 -22 137 -1 29 -3 32 -16 21 -9 -7 -18 -10 -21 -7 -9 9 5 27 21 27
16 0 23 18 19 53 -2 25 0 27 32 27 18 0 62 -10 96 -21z m-401 0 c28 -15 14
-31 -16 -17 -13 6 -22 15 -19 19 7 11 11 11 35 -2z m249 -19 c-8 -5 -17 -7
-19 -4 -3 3 1 9 9 14 8 5 17 7 19 4 3 -3 -1 -9 -9 -14z m298 -15 c3 -25 2 -27
-12 -16 -19 16 -22 55 -3 49 6 -3 14 -17 15 -33z m-577 0 c1 -16 -16 -16 -36
0 -19 15 -19 15 8 13 15 -2 28 -7 28 -13z m613 -28 c-9 -24 -24 -11 -24 21 0
24 2 25 15 11 9 -9 13 -23 9 -32z m-328 18 c-11 -8 -22 -12 -25 -9 -6 6 19 24
34 24 6 -1 1 -7 -9 -15z m-316 -16 c0 -12 -47 -12 -54 0 -4 5 0 11 6 14 18 5
48 -3 48 -14z m683 -29 c-6 -21 -18 -26 -27 -12 -3 5 -2 18 1 30 4 17 9 20 18
12 7 -6 11 -20 8 -30z m-719 -1 c-3 -5 -20 -9 -37 -9 -29 1 -30 2 -14 14 19
15 61 10 51 -5z m348 -21 c-6 -6 -15 -8 -19 -4 -4 4 -1 11 7 16 8 5 17 7 19 4
3 -2 -1 -10 -7 -16z m402 14 c8 -13 -5 -52 -15 -46 -12 7 -12 54 0 54 6 0 12
-4 15 -8z m-791 -27 c-2 -5 -14 -10 -28 -11 -25 -1 -31 6 -18 20 10 10 48 3
46 -9z m37 -5 c0 -5 -7 -13 -16 -18 -14 -8 -3 -23 69 -93 l87 -84 -25 -49
c-14 -27 -25 -60 -25 -73 0 -23 -1 -23 -124 -23 -97 0 -125 3 -129 14 -5 12 4
59 24 136 8 28 57 113 90 156 33 42 49 53 49 34z m732 -22 c62 -69 96 -148
123 -283 l6 -31 -126 -1 c-90 -1 -127 2 -129 10 -18 66 -31 99 -43 108 -7 6
-13 15 -13 19 0 4 38 44 84 90 l85 83 -22 18 c-15 12 -17 18 -8 19 8 0 27 -15
43 -32z m53 -7 c-3 -12 -11 -21 -16 -21 -10 0 -12 21 -3 45 10 24 27 2 19 -24z
m-425 19 c-19 -13 -30 -13 -30 0 0 6 10 10 23 10 18 0 19 -2 7 -10z m-342 -12
c-2 -6 -10 -14 -16 -16 -7 -2 -10 2 -6 12 7 18 28 22 22 4z m667 6 c14 -6 12
-11 -11 -35 -14 -15 -33 -25 -40 -22 -23 9 -16 25 9 19 12 -3 16 -3 10 0 -23
10 -14 26 9 18 20 -6 21 -5 9 10 -15 17 -12 19 14 10z m-750 -14 c-3 -5 -17
-10 -31 -10 -14 0 -22 4 -19 10 3 6 17 10 31 10 14 0 22 -4 19 -10z m99 -22
c-6 -20 -5 -21 10 -9 14 11 16 11 16 -1 0 -24 -12 -29 -31 -12 -17 16 -16 44
3 44 5 0 6 -10 2 -22z m331 12 c-3 -5 -13 -10 -21 -10 -8 0 -14 5 -14 10 0 6
9 10 21 10 11 0 17 -4 14 -10z m455 -14 c0 -8 -7 -19 -15 -26 -13 -10 -15 -9
-15 12 0 14 3 28 6 31 9 9 24 -2 24 -17z m-910 -16 c0 -5 -6 -10 -14 -10 -8 0
-23 -3 -33 -7 -16 -6 -16 -5 -4 10 15 18 51 23 51 7z m455 0 c-3 -5 -13 -10
-21 -10 -8 0 -14 5 -14 10 0 6 9 10 21 10 11 0 17 -4 14 -10z m-239 -69 c-13
-20 -28 -12 -22 12 3 12 3 16 0 10 -10 -23 -26 -14 -18 9 6 20 5 21 -10 9 -14
-11 -16 -11 -16 1 0 29 14 28 43 -1 16 -16 26 -34 23 -40z m502 50 c3 -8 -1
-12 -9 -9 -7 2 -15 10 -17 17 -3 8 1 12 9 9 7 -2 15 -10 17 -17z m212 2 c0
-23 -17 -49 -26 -41 -9 10 4 58 16 58 6 0 10 -8 10 -17z m-477 -10 c-7 -2 -19
-2 -25 0 -7 3 -2 5 12 5 14 0 19 -2 13 -5z m238 -9 c12 -15 11 -16 -11 -9 -22
7 -23 6 -11 -9 11 -14 11 -16 -1 -16 -24 0 -29 12 -11 32 20 22 17 22 34 2z
m-721 -9 c-13 -16 -50 -21 -50 -7 0 15 13 22 38 22 21 0 22 -2 12 -15z m508
-15 c5 -13 3 -13 -11 -1 -13 10 -17 10 -17 1 0 -10 -3 -10 -15 0 -9 7 -15 8
-15 2 0 -5 -13 -9 -29 -8 -17 1 -27 -2 -24 -7 3 -5 -4 -6 -17 -2 -15 5 -20 4
-16 -4 4 -6 3 -11 -3 -11 -29 0 -16 20 21 33 55 18 120 17 126 -3z m463 -33
c-18 -18 -25 1 -11 30 l14 28 4 -24 c2 -13 -1 -28 -7 -34z m-431 27 c0 -8 -4
-12 -10 -9 -5 3 -10 10 -10 16 0 5 5 9 10 9 6 0 10 -7 10 -16z m50 -23 c0 -12
-2 -13 -9 -3 -4 8 -12 13 -17 12 -5 -1 -10 3 -12 8 -2 6 6 8 17 5 12 -3 21
-13 21 -22z m-606 5 c-5 -14 -54 -29 -54 -17 0 13 24 31 42 31 11 0 15 -5 12
-14z m282 -8 c-3 -13 -3 -17 0 -10 3 6 10 12 16 12 6 0 5 -6 -2 -16 -12 -13
-15 -13 -28 0 -15 14 -9 36 9 36 6 0 8 -10 5 -22z m294 -6 c66 -26 119 -113
120 -192 0 -64 -38 -139 -86 -173 -22 -15 -43 -27 -46 -27 -4 0 -19 -5 -33
-10 -21 -8 -25 -13 -16 -23 9 -11 0 -14 -44 -14 -30 0 -55 4 -55 8 0 5 -7 6
-15 3 -10 -4 -15 0 -14 12 0 11 3 14 6 6 2 -6 9 -9 15 -6 6 4 14 0 19 -7 7
-11 9 -11 9 -1 0 8 5 10 12 6 17 -11 48 -12 48 -3 0 4 -19 10 -42 14 -135 23
-219 160 -173 283 46 124 169 176 295 124z m124 19 c8 -12 -21 -34 -34 -26 -5
3 -10 -1 -10 -9 0 -9 -4 -16 -8 -16 -13 0 -32 23 -32 40 1 12 3 12 14 -3 9
-11 17 -14 20 -8 4 6 14 7 24 4 15 -6 15 -5 3 10 -12 15 -11 17 2 17 9 0 18
-4 21 -9z m302 -59 c-15 -15 -16 -15 -16 4 0 28 24 52 28 28 2 -9 -3 -24 -12
-32z m-1016 18 c0 -12 -40 -33 -48 -25 -4 4 2 13 12 21 23 16 36 18 36 4z
m347 4 c-3 -3 -12 -4 -19 -1 -8 3 -5 6 6 6 11 1 17 -2 13 -5z m354 -39 c10 7
12 -8 2 -18 -10 -11 -31 26 -24 43 4 11 7 9 9 -8 2 -12 8 -20 13 -17z m-374
19 c-3 -3 -12 -4 -19 -1 -8 3 -5 6 6 6 11 1 17 -2 13 -5z m709 -92 c-23 -23
-32 -7 -12 22 14 22 14 25 1 20 -18 -7 -20 17 -2 35 10 10 14 5 21 -24 7 -29
5 -40 -8 -53z m-1051 59 c-3 -6 -15 -16 -26 -21 -14 -8 -19 -7 -19 3 0 8 10
19 23 24 25 12 32 10 22 -6z m325 9 c0 -5 -7 -10 -16 -10 -8 0 -12 5 -9 10 3
6 10 10 16 10 5 0 9 -4 9 -10z m-15 -30 c-3 -5 -10 -10 -16 -10 -5 0 -9 5 -9
10 0 6 7 10 16 10 8 0 12 -4 9 -10z m417 -12 c-7 -7 -12 -8 -12 -2 0 14 12 26
19 19 2 -3 -1 -11 -7 -17z m-734 -10 c-6 -16 -48 -43 -48 -30 0 13 28 42 42
42 5 0 8 -5 6 -12z m309 -4 c-3 -3 -12 -4 -19 -1 -8 3 -5 6 6 6 11 1 17 -2 13
-5z m474 -64 c5 0 9 -9 9 -20 0 -23 -6 -22 133 -22 59 0 107 -3 107 -6 -2 -63
-66 -227 -111 -281 l-20 -25 -89 89 -89 88 26 49 c14 27 26 66 27 86 1 31 -2
36 -18 34 -17 -3 -18 -2 -7 12 8 9 9 16 3 16 -14 0 -24 29 -15 43 4 7 13 -3
21 -26 8 -20 19 -37 23 -37z m-481 40 c0 -5 -4 -10 -10 -10 -5 0 -7 -6 -4 -14
3 -7 -2 -16 -10 -19 -9 -4 -16 -2 -16 3 0 6 5 10 11 10 5 0 7 5 4 10 -7 12 2
30 16 30 5 0 9 -4 9 -10z m761 -33 c-20 -20 -21 -20 -21 -3 0 10 8 25 18 32
26 19 28 -4 3 -29z m-1067 8 c-9 -22 -44 -40 -44 -22 0 17 20 37 37 37 7 0 10
-7 7 -15z m946 -31 c0 -8 -4 -14 -10 -14 -5 0 -10 9 -10 21 0 11 5 17 10 14 6
-3 10 -13 10 -21z m60 0 c0 -8 -4 -14 -10 -14 -5 0 -10 9 -10 21 0 11 5 17 10
14 6 -3 10 -13 10 -21z m30 -1 c0 -14 3 -14 25 1 20 13 25 14 25 2 0 -7 -6
-19 -14 -25 -19 -16 -56 6 -56 32 0 10 5 15 10 12 6 -3 10 -13 10 -22z m-1012
-6 c-4 -23 -3 -23 81 -22 83 1 86 2 83 23 -2 12 2 22 7 22 6 0 11 -9 11 -20 0
-20 9 -24 43 -21 11 2 17 -5 17 -16 0 -11 12 -43 27 -72 l26 -54 -86 -83 c-48
-46 -92 -81 -99 -79 -14 6 -21 15 -61 87 -42 76 -81 258 -55 258 6 0 8 -10 6
-23z m32 -3 c0 -8 -4 -12 -10 -9 -5 3 -10 13 -10 21 0 8 5 12 10 9 6 -3 10
-13 10 -21z m27 11 c9 -25 -4 -29 -17 -6 -7 15 -7 21 0 21 6 0 13 -7 17 -15z
m33 -11 c0 -8 -4 -12 -10 -9 -5 3 -10 13 -10 21 0 8 5 12 10 9 6 -3 10 -13 10
-21z m30 5 c0 -11 -4 -17 -10 -14 -5 3 -10 13 -10 21 0 8 5 14 10 14 6 0 10
-9 10 -21z m30 0 c0 -11 -4 -17 -10 -14 -5 3 -10 13 -10 21 0 8 5 14 10 14 6
0 10 -9 10 -21z m60 0 c0 -11 -4 -17 -10 -14 -5 3 -10 13 -10 21 0 8 5 14 10
14 6 0 10 -9 10 -21z m43 3 c2 7 8 9 13 5 11 -11 -15 -27 -33 -20 -7 3 -13 13
-13 22 1 14 2 14 14 -2 10 -13 15 -15 19 -5z m547 -3 c0 -5 -4 -9 -10 -9 -5 0
-10 7 -10 16 0 8 5 12 10 9 6 -3 10 -10 10 -16z m30 0 c0 -5 -4 -9 -10 -9 -5
0 -10 7 -10 16 0 8 5 12 10 9 6 -3 10 -10 10 -16z m30 0 c0 -5 -4 -9 -10 -9
-5 0 -10 7 -10 16 0 8 5 12 10 9 6 -3 10 -10 10 -16z m30 6 c0 -8 -4 -15 -10
-15 -5 0 -10 7 -10 15 0 8 5 15 10 15 6 0 10 -7 10 -15z m60 0 c0 -8 -4 -15
-10 -15 -5 0 -10 7 -10 15 0 8 5 15 10 15 6 0 10 -7 10 -15z m-997 -40 c-25
-19 -30 1 -7 27 17 18 19 18 22 3 2 -9 -5 -23 -15 -30z m792 25 c-3 -5 -11
-10 -16 -10 -6 0 -7 5 -4 10 3 6 11 10 16 10 6 0 7 -4 4 -10z m-479 -25 c-3
-8 -1 -15 3 -15 5 0 14 -14 20 -31 13 -39 14 -49 2 -49 -11 0 -43 89 -35 101
9 15 17 10 10 -6z m474 -5 c0 -5 -7 -10 -16 -10 -8 0 -12 5 -9 10 3 6 10 10
16 10 5 0 9 -4 9 -10z m317 -13 c-7 -19 -47 -29 -47 -13 0 12 41 37 49 30 2
-2 1 -9 -2 -17z m-1077 4 c0 -5 -9 -19 -20 -32 -19 -23 -19 -23 -20 -3 0 20
17 44 32 44 4 0 8 -4 8 -9z m755 -21 c-3 -5 -10 -10 -16 -10 -5 0 -9 5 -9 10
0 6 7 10 16 10 8 0 12 -4 9 -10z m315 -25 c0 -13 -39 -38 -48 -30 -7 6 12 34
26 38 10 3 18 5 20 6 1 0 2 -6 2 -14z m-1084 -33 c-14 -14 -16 -14 -16 -1 0
20 23 44 29 28 2 -6 -4 -18 -13 -27z m761 32 c-3 -3 -12 -4 -19 -1 -8 3 -5 6
6 6 11 1 17 -2 13 -5z m-17 -24 c0 -5 -7 -10 -16 -10 -8 0 -12 5 -9 10 3 6 10
10 16 10 5 0 9 -4 9 -10z m-379 -30 c5 0 9 -7 9 -16 0 -8 5 -12 10 -9 6 3 10
-1 10 -11 0 -14 -2 -15 -17 -3 -39 30 -45 40 -37 57 7 16 7 16 11 0 3 -10 9
-18 14 -18z m-349 -22 c-21 -22 -22 -22 -22 -2 0 27 21 47 34 34 7 -7 3 -17
-12 -32z m1058 32 c0 -12 -40 -34 -47 -26 -9 8 17 36 33 36 8 0 14 -4 14 -10z
m-347 -7 c-7 -2 -19 -2 -25 0 -7 3 -2 5 12 5 14 0 19 -2 13 -5z m-21 -25 c-9
-9 -15 -9 -24 0 -9 9 -7 12 12 12 19 0 21 -3 12 -12z m24 -13 c-3 -9 -10 -13
-16 -10 -5 3 -10 2 -10 -2 0 -5 38 -46 85 -92 l85 -83 -23 -19 c-64 -56 -286
-137 -288 -106 0 7 -1 62 -2 122 -2 108 -2 110 -24 107 -13 -2 -23 2 -23 8 0
6 10 10 23 9 38 -4 104 20 149 55 45 35 54 37 44 11z m-698 -37 l-13 -23 -3
23 c-4 28 21 66 26 39 2 -9 -3 -26 -10 -39z m320 34 c2 -7 -2 -10 -12 -6 -9 3
-16 11 -16 16 0 13 23 5 28 -10z m702 -7 c-7 -8 -21 -15 -31 -15 -26 0 -13 28
14 32 29 5 32 2 17 -17z m-630 -11 c0 -8 -4 -12 -10 -9 -5 3 -10 13 -10 21 0
8 5 12 10 9 6 -3 10 -13 10 -21z m255 15 c-15 -23 -105 -48 -105 -28 0 6 7 9
15 5 8 -3 15 -1 15 4 0 5 7 6 17 3 11 -5 14 -3 8 6 -6 10 -2 11 15 6 15 -5 20
-4 16 4 -4 6 0 11 9 11 9 0 13 -5 10 -11z m72 -10 c-4 -16 -3 -18 9 -8 11 9
14 8 14 -3 0 -24 -12 -29 -32 -12 -14 13 -15 20 -7 31 16 19 22 16 16 -8z
m-423 5 c9 -3 14 -10 11 -15 -7 -10 -35 0 -35 12 0 11 3 11 24 3z m88 -29 c29
-14 61 -25 71 -25 15 0 17 -13 17 -124 0 -91 -3 -125 -12 -129 -38 -12 -187
42 -266 97 l-42 30 87 88 c48 48 88 88 89 88 1 0 26 -11 56 -25z m-103 6 c9
-6 10 -11 2 -15 -13 -8 -31 1 -31 15 0 11 11 11 29 0z m-249 -20 c0 -10 -7
-24 -15 -31 -12 -10 -15 -10 -15 3 0 23 11 47 21 47 5 0 9 -8 9 -19z m721 -14
c-8 -8 -11 -7 -11 4 0 20 13 34 18 19 3 -7 -1 -17 -7 -23z m257 21 c-3 -7 -17
-15 -33 -16 -25 -3 -27 -2 -16 12 16 19 55 22 49 4z m-750 -17 c3 -8 -1 -12
-9 -9 -7 2 -15 10 -17 17 -3 8 1 12 9 9 7 -2 15 -10 17 -17z m-18 -23 c0 -5
-10 -6 -22 -2 -21 6 -22 5 -8 -11 14 -17 13 -18 -8 -13 -19 5 -21 4 -11 -8 9
-11 8 -14 -3 -14 -28 0 -28 14 -2 41 24 26 54 29 54 7z m532 0 c-7 -7 -12 -8
-12 -2 0 14 12 26 19 19 2 -3 -1 -11 -7 -17z m-731 -41 c-16 -16 -26 20 -10
40 13 15 14 14 17 -7 2 -12 -1 -27 -7 -33z m944 34 c-8 -13 -55 -15 -55 -2 0
5 12 11 28 13 32 4 36 3 27 -11z m-181 -6 c-6 -16 -24 -21 -24 -7 0 11 11 22
21 22 5 0 6 -7 3 -15z m-289 -5 c-3 -5 -13 -10 -21 -10 -8 0 -14 5 -14 10 0 6
9 10 21 10 11 0 17 -4 14 -10z m315 -9 c0 -12 -20 -25 -27 -18 -7 7 6 27 18
27 5 0 9 -4 9 -9z m-750 -18 c0 -10 -4 -24 -9 -32 -12 -19 -24 3 -16 29 8 25
25 26 25 3z m435 -3 c-3 -5 -13 -10 -21 -10 -8 0 -14 5 -14 10 0 6 9 10 21 10
11 0 17 -4 14 -10z m335 1 c0 -12 -20 -25 -27 -18 -7 7 6 27 18 27 5 0 9 -4 9
-9z m105 -1 c-3 -5 -17 -10 -31 -10 -13 0 -24 5 -24 10 0 6 14 10 31 10 17 0
28 -4 24 -10z m-791 -6 c9 -3 14 -10 11 -15 -3 -4 -11 -6 -18 -3 -9 3 -13 -5
-14 -23 -1 -56 -3 -64 -13 -58 -14 9 -12 55 2 55 9 0 9 3 1 11 -9 9 -8 15 0
25 14 16 12 15 31 8z m-54 -40 c0 -23 -14 -32 -24 -16 -8 13 5 52 15 46 5 -3
9 -16 9 -30z m758 24 c-2 -6 -10 -14 -16 -16 -7 -2 -10 2 -6 12 7 18 28 22 22
4z m-353 -8 c-3 -5 -13 -10 -21 -10 -8 0 -14 5 -14 10 0 6 9 10 21 10 11 0 17
-4 14 -10z m405 0 c12 -8 12 -10 -3 -16 -22 -8 -50 3 -42 16 8 12 25 13 45 0z
m-405 -30 c-3 -5 -13 -10 -21 -10 -8 0 -14 5 -14 10 0 6 9 10 21 10 11 0 17
-4 14 -10z m374 -16 c-13 -16 -19 -17 -38 -5 -21 13 -5 29 24 23 20 -3 23 -7
14 -18z m-709 -42 c0 -24 -1 -25 -16 -10 -10 9 -14 24 -10 33 9 23 26 9 26
-23z m340 28 c0 -5 -9 -10 -20 -10 -11 0 -20 5 -20 10 0 6 9 10 20 10 11 0 20
-4 20 -10z m334 -9 c4 -5 0 -11 -6 -14 -18 -5 -48 3 -48 14 0 12 47 12 54 0z
m-634 -48 c0 -22 -2 -24 -15 -13 -8 7 -15 24 -15 37 0 22 2 24 15 13 8 -7 15
-24 15 -37z m295 27 c-3 -5 -13 -10 -21 -10 -8 0 -12 5 -9 10 3 6 13 10 21 10
8 0 12 -4 9 -10z m296 0 c5 0 9 -4 9 -10 0 -12 -47 -13 -54 -1 -8 12 6 22 22
16 7 -3 18 -5 23 -5z m-553 -45 c3 -25 2 -27 -12 -16 -19 16 -22 55 -3 49 6
-3 14 -17 15 -33z m262 15 c0 -5 -9 -10 -21 -10 -11 0 -17 5 -14 10 3 6 13 10
21 10 8 0 14 -4 14 -10z m250 0 c12 -8 12 -10 -4 -16 -11 -4 -24 0 -34 10 -15
15 -15 16 3 16 11 0 27 -4 35 -10z m-470 -19 c14 -27 13 -41 -4 -35 -15 6 -28
54 -15 54 5 0 13 -9 19 -19z m430 -6 c10 -12 9 -15 -8 -15 -11 0 -25 7 -32 15
-10 12 -9 15 8 15 11 0 25 -7 32 -15z m-381 -17 c10 -28 9 -30 -13 -22 -17 7
-23 44 -6 44 6 0 14 -10 19 -22z m166 12 c-3 -5 4 -19 17 -32 16 -16 18 -23 8
-26 -7 -3 -19 4 -26 14 -7 11 -18 24 -23 30 -11 14 -4 24 16 24 8 0 12 -4 8
-10z m161 -4 c22 -17 11 -35 -13 -20 -19 12 -29 34 -16 34 5 0 18 -6 29 -14z
m-282 -19 c15 -24 -3 -35 -20 -13 -8 11 -14 24 -14 29 0 13 22 3 34 -16z m241
3 c18 -19 17 -20 -2 -20 -22 0 -47 23 -36 33 10 11 19 8 38 -13z m-195 -11 c7
-11 9 -23 6 -26 -8 -9 -36 17 -36 33 0 21 18 17 30 -7z m51 -10 c7 -15 6 -19
-5 -19 -13 0 -36 28 -36 44 0 12 31 -8 41 -25z m94 11 c18 -19 17 -20 -3 -20
-12 0 -26 9 -32 20 -8 16 -8 20 3 20 8 0 22 -9 32 -20z"/>
<path d="M1003 1450 c-35 -16 -63 -33 -63 -37 0 -4 12 -26 25 -48 14 -22 25
-52 25 -67 0 -15 5 -30 10 -33 19 -12 10 67 -11 101 -20 32 -19 54 2 54 6 0 7
-4 4 -10 -8 -13 13 -50 28 -50 7 0 19 -5 27 -10 13 -9 13 -11 0 -19 -8 -6 -11
-13 -7 -17 3 -4 13 -1 22 6 12 10 15 10 15 -3 0 -8 -8 -18 -17 -21 -12 -5 -13
-10 -5 -18 14 -14 42 7 42 32 0 10 10 25 23 33 22 16 22 16 1 16 -22 1 -34 24
-34 69 0 25 0 25 -37 12 -26 -9 -27 -9 -9 5 11 8 26 15 33 15 7 0 13 5 13 10
0 16 -22 12 -87 -20z m46 -36 c-30 -17 -36 -17 -36 -1 0 6 14 13 30 13 l30 1
-24 -13z m15 -19 c-10 -8 -26 -14 -34 -14 -9 0 -4 6 10 14 33 19 49 19 24 0z
m25 -32 c9 -19 9 -23 -2 -23 -9 0 -14 10 -14 25 0 29 0 29 16 -2z"/>
<path d="M1345 1450 c-3 -5 -19 -10 -35 -10 -36 0 -37 -2 -45 -77 l-7 -62 38
-16 c55 -23 75 -14 102 46 26 57 24 75 -13 89 -16 6 -23 14 -19 25 7 17 -11
21 -21 5z m33 -48 c40 -23 23 -30 -33 -14 -30 8 -52 19 -49 24 7 11 53 6 82
-10z m-15 -38 c42 -10 33 -27 -10 -20 -60 11 -74 17 -67 28 3 5 16 7 28 4 11
-4 33 -9 49 -12z m-20 -38 c15 -4 27 -11 27 -17 0 -18 -28 -21 -59 -4 -33 17
-43 40 -13 32 9 -3 29 -8 45 -11z"/>
<path d="M763 1237 c-26 -44 -34 -87 -17 -87 8 0 15 7 15 15 3 29 4 33 13 42
5 5 6 -4 2 -21 -7 -30 4 -46 32 -46 13 0 11 13 -6 59 -3 9 -1 12 6 7 6 -3 13
-2 17 4 3 5 1 10 -4 10 -6 0 -11 5 -11 10 0 16 17 12 24 -6 4 -9 1 -23 -5 -30
-6 -7 -9 -19 -6 -26 3 -7 11 2 20 21 8 19 13 40 10 47 -9 24 -35 24 -54 2
l-19 -23 6 28 c8 36 0 34 -23 -6z m37 -67 c0 -5 -4 -10 -10 -10 -5 0 -10 5
-10 10 0 6 5 10 10 10 6 0 10 -4 10 -10z"/>
<path d="M857 1193 c-6 -16 -15 -30 -19 -33 -4 -3 -4 -11 1 -18 4 -8 15 4 29
33 12 25 17 45 12 45 -6 0 -16 -12 -23 -27z"/>
<path d="M897 1203 c-4 -3 1 -11 10 -18 16 -12 11 -35 -8 -35 -6 0 -7 5 -4 10
3 6 2 10 -3 10 -5 0 -17 -16 -27 -35 -14 -30 -20 -35 -38 -29 -39 13 -52 9
-55 -13 -2 -13 1 -23 7 -23 6 0 11 5 11 10 0 16 47 12 54 -5 9 -24 39 -19 33
5 -3 11 -1 20 4 20 4 0 6 6 3 14 -3 8 4 16 20 20 29 7 43 41 26 61 -14 16 -23
19 -33 8z"/>
<path d="M724 1115 c-7 -17 4 -37 17 -30 12 8 12 45 -1 45 -6 0 -13 -7 -16
-15z"/>
<path d="M1550 1261 c0 -6 5 -13 10 -16 6 -4 8 -11 4 -16 -4 -6 -13 -4 -25 7
-15 13 -21 14 -34 4 -8 -6 -13 -22 -12 -33 2 -18 -4 -23 -31 -25 -34 -3 -40
-24 -8 -30 25 -5 69 26 62 45 -10 24 4 36 23 19 15 -13 20 -14 35 -3 15 11 17
17 7 35 -12 22 -31 30 -31 13z"/>
<path d="M1586 1185 c-3 -8 -2 -23 1 -32 6 -16 5 -16 -10 -4 -9 7 -17 20 -17
27 0 25 -22 15 -33 -16 -7 -18 -19 -30 -29 -30 -20 0 -24 -35 -8 -60 9 -13 13
-12 29 8 22 26 31 28 31 7 0 -9 10 -15 26 -15 23 0 25 3 19 30 -7 31 2 39 23
18 22 -22 36 5 22 46 -12 38 -43 50 -54 21z m44 -38 c0 -20 -1 -20 -16 -5 -9
9 -13 21 -9 27 10 16 25 3 25 -22z m-76 -8 c-3 -5 -10 -7 -15 -3 -5 3 -7 10
-3 15 3 5 10 7 15 3 5 -3 7 -10 3 -15z m29 -52 c-3 -5 -12 -2 -20 6 -9 8 -12
20 -8 27 5 8 11 6 20 -7 7 -10 11 -22 8 -26z m-63 18 c-7 -8 -17 -12 -22 -9
-6 4 -5 10 3 15 22 14 33 10 19 -6z"/>
<path d="M1165 1120 l-18 -60 -65 0 -65 0 49 -37 c27 -20 50 -37 51 -38 3 -1
-21 -80 -33 -109 -5 -14 7 -9 48 19 l56 36 51 -36 c28 -20 51 -35 51 -32 0 2
-8 29 -19 61 l-19 57 56 39 55 40 -66 0 -65 0 -17 53 c-10 28 -21 56 -25 60
-3 4 -15 -20 -25 -53z m39 -26 c5 -12 2 -15 -11 -10 -12 4 -8 -3 9 -18 15 -13
24 -27 21 -30 -4 -3 -2 -6 4 -6 5 0 13 3 17 7 11 11 46 11 53 -1 3 -6 3 -8 -2
-4 -4 4 -14 0 -22 -8 -8 -8 -18 -12 -23 -9 -4 3 -7 -3 -6 -13 1 -13 -6 -17
-30 -15 -21 1 -34 -5 -44 -20 -12 -21 -12 -21 6 -6 31 27 82 6 69 -28 -2 -7 1
-13 7 -13 6 0 8 -3 4 -7 -4 -5 -14 1 -22 12 -8 11 -17 19 -19 18 -12 -7 -26
-2 -20 6 9 15 -59 -21 -72 -38 -7 -9 -13 -11 -13 -5 0 5 9 20 20 32 13 13 16
22 8 22 -9 0 -9 3 -1 11 8 8 6 16 -8 30 -10 10 -23 19 -28 19 -6 0 -12 4 -15
8 -3 5 24 8 59 7 35 -1 62 1 60 5 -3 4 -16 6 -29 5 -25 -3 -25 -3 -9 31 18 38
28 42 37 18z"/>
<path d="M1136 1008 c3 -4 14 -6 24 -5 31 5 32 13 1 12 -16 0 -27 -3 -25 -7z"/>
<path d="M1204 1008 c-4 -7 -4 -10 1 -6 4 4 15 2 24 -5 14 -11 14 -10 2 6 -16
20 -18 21 -27 5z"/>
<path d="M1121 1144 c0 -11 3 -14 6 -6 3 7 2 16 -1 19 -3 4 -6 -2 -5 -13z"/>
<path d="M1510 945 c0 -8 5 -24 12 -35 17 -26 4 -35 -24 -16 -28 20 -38 20
-38 2 0 -15 57 -39 71 -30 5 3 9 0 9 -5 0 -6 -13 -11 -29 -11 -31 0 -65 -25
-56 -41 4 -5 16 -3 28 5 12 8 39 17 60 20 40 7 46 16 22 36 -8 7 -20 30 -27
51 -11 39 -28 53 -28 24z"/>
<path d="M1581 907 c-6 -8 -8 -17 -4 -20 7 -8 33 11 33 24 0 13 -16 11 -29 -4z"/>
<path d="M1620 900 c0 -11 -13 -45 -29 -77 -28 -53 -31 -73 -12 -73 11 0 61
120 61 148 0 12 -4 22 -10 22 -5 0 -10 -9 -10 -20z"/>
<path d="M1536 801 c-4 -7 -5 -15 -2 -18 9 -9 19 4 14 18 -4 11 -6 11 -12 0z"/>
<path d="M843 939 c-4 -14 -12 -19 -29 -17 -13 2 -23 -1 -23 -7 1 -5 5 -9 10
-7 13 3 11 -12 -3 -26 -10 -10 -16 -8 -30 10 -9 13 -20 19 -24 15 -4 -4 1 -16
11 -27 15 -16 16 -22 5 -35 -7 -9 -10 -19 -6 -22 4 -4 11 -1 16 7 7 12 11 12
26 -1 16 -12 17 -12 11 4 -9 23 20 67 43 67 10 0 24 8 31 17 12 15 12 16 -3
10 -21 -7 -24 3 -6 21 9 9 8 12 -6 12 -10 0 -20 -9 -23 -21z"/>
<path d="M891 884 c10 -12 8 -13 -6 -8 -14 6 -16 4 -10 -6 5 -9 4 -11 -4 -6
-6 4 -9 12 -6 17 8 12 -2 11 -27 -2 -20 -11 -20 -11 3 -33 24 -23 24 -23 42
-3 9 11 17 16 17 10 0 -17 -37 -45 -45 -34 -3 6 -14 15 -23 20 -14 7 -17 4
-18 -14 -2 -25 41 -74 53 -61 4 3 -3 13 -15 22 -12 8 -22 20 -22 27 0 8 3 8
12 -1 19 -19 42 -14 58 11 8 12 13 25 12 29 -1 4 6 5 16 1 13 -5 14 -3 5 7 -6
7 -9 18 -7 25 3 8 -4 13 -21 13 -21 0 -23 -3 -14 -14z"/>
<path d="M720 866 c0 -9 7 -16 16 -16 9 0 14 5 12 12 -6 18 -28 21 -28 4z"/>
<path d="M766 802 c-7 -11 11 -38 20 -29 4 4 13 2 21 -5 24 -20 27 1 3 22 -25
22 -36 25 -44 12z"/>
<path d="M1272 736 c-9 -5 -20 -14 -24 -20 -15 -22 -7 -26 17 -10 16 10 34 14
50 10 23 -6 30 1 23 21 -4 10 -46 10 -66 -1z"/>
<path d="M1360 735 c0 -8 4 -15 10 -15 5 0 7 7 4 15 -4 8 -8 15 -10 15 -2 0
-4 -7 -4 -15z"/>
<path d="M1290 695 c0 -8 5 -15 10 -15 6 0 10 7 10 15 0 8 -4 15 -10 15 -5 0
-10 -7 -10 -15z"/>
<path d="M1335 688 c-64 -33 -67 -39 -49 -93 15 -43 18 -46 43 -39 14 4 34 6
44 6 9 0 17 4 17 10 0 5 9 17 21 27 l21 17 -29 46 -29 46 -39 -20z m35 -8 c0
-5 -18 -19 -40 -30 -51 -26 -53 -9 -2 18 45 25 42 24 42 12z m20 -28 c0 -5
-20 -17 -45 -29 -54 -25 -60 -12 -7 16 41 22 52 25 52 13z m15 -32 c-4 -6 -23
-18 -43 -27 -20 -9 -40 -19 -44 -21 -5 -2 -8 0 -8 5 0 9 77 53 93 53 5 0 5 -5
2 -10z"/>
<path d="M1252 678 c-14 -14 -16 -42 -2 -33 14 9 32 45 22 45 -4 0 -13 -5 -20
-12z"/>
<path d="M995 731 c-42 -25 -67 -65 -52 -80 6 -6 19 -11 28 -11 28 0 40 -23
24 -47 -13 -19 -11 -33 5 -33 10 0 32 69 25 79 -3 5 5 17 17 25 12 9 19 19 15
22 -4 4 -18 -3 -32 -16 -14 -13 -25 -20 -25 -15 0 5 15 21 33 36 17 16 27 28
20 29 -6 0 -25 -11 -41 -25 -36 -30 -46 -32 -32 -4 7 11 27 27 46 35 19 8 34
16 34 19 0 11 -37 4 -65 -14z"/>
<path d="M1090 701 c-5 -11 -10 -25 -10 -30 0 -6 -11 -33 -24 -60 -15 -31 -20
-54 -15 -63 7 -10 10 -8 15 10 8 27 24 29 24 2 0 -27 13 -25 26 5 10 21 9 26
-9 38 -23 15 -16 37 14 37 10 0 19 5 19 10 0 6 -7 10 -16 10 -10 0 -14 5 -10
15 3 8 9 22 12 30 9 22 -14 18 -26 -4z"/>
<path d="M1646 1583 c-3 -4 1 -14 10 -24 15 -17 14 -19 -12 -26 -16 -4 -37 -6
-47 -4 -13 2 -18 -3 -15 -16 2 -12 13 -18 32 -19 33 -1 59 -30 52 -56 -8 -33
12 -28 43 10 l30 37 16 -22 c16 -23 45 -31 45 -14 0 24 -141 147 -154 134z
m74 -68 c30 -32 21 -32 -16 0 -16 14 -24 25 -18 25 6 0 21 -11 34 -25z m-45
-5 c-3 -5 -11 -10 -16 -10 -6 0 -7 5 -4 10 3 6 11 10 16 10 6 0 7 -4 4 -10z
m35 -30 c0 -5 -4 -10 -9 -10 -6 0 -13 5 -16 10 -3 6 1 10 9 10 9 0 16 -4 16
-10z"/>
<path d="M574 1545 c-8 -21 37 -57 54 -43 6 6 12 17 12 25 0 13 -3 13 -15 3
-13 -11 -14 -10 -9 4 5 12 2 15 -12 9 -12 -4 -15 -3 -10 5 4 7 2 12 -4 12 -6
0 -13 -7 -16 -15z"/>
<path d="M696 1525 c-15 -19 -22 -35 -17 -35 6 0 16 9 23 20 7 11 17 20 22 20
4 0 -3 -15 -18 -34 -18 -24 -22 -37 -15 -42 7 -4 15 -1 20 7 22 36 28 43 35
36 4 -4 -1 -16 -11 -27 -23 -25 -14 -36 15 -18 17 10 20 20 16 46 -2 17 -1 32
5 32 5 0 9 7 9 15 0 18 -16 20 -24 3 -5 -10 -7 -10 -12 0 -9 19 -20 14 -48
-23z"/>
<path d="M533 1363 c-18 -6 -16 -30 2 -37 9 -3 18 1 22 10 7 18 -7 33 -24 27z"/>
<path d="M1814 1349 c-10 -17 13 -36 27 -22 12 12 4 33 -11 33 -5 0 -12 -5
-16 -11z"/>
<path d="M1695 1340 c-3 -6 1 -7 9 -4 18 7 21 14 7 14 -6 0 -13 -4 -16 -10z"/>
<path d="M446 1232 c-13 -13 -4 -22 34 -32 30 -8 38 -14 33 -27 -4 -10 -2 -14
7 -11 8 2 18 19 23 37 9 36 1 54 -13 31 -7 -11 -16 -12 -44 -3 -19 6 -37 8
-40 5z"/>
<path d="M1820 1225 c0 -8 12 -18 27 -21 23 -6 24 -8 10 -19 -10 -7 -17 -20
-17 -30 0 -16 4 -15 28 8 15 15 36 27 45 27 9 0 17 7 17 15 0 10 -10 15 -29
15 -16 0 -41 4 -55 10 -21 7 -26 6 -26 -5z"/>
<path d="M420 1100 c0 -44 27 -51 57 -14 l23 29 0 -27 c0 -16 5 -28 11 -28 6
0 9 14 7 33 -2 25 -8 33 -26 35 -17 3 -25 -2 -29 -17 -7 -27 -23 -27 -23 -1 0
11 -4 20 -10 20 -5 0 -10 -14 -10 -30z"/>
<path d="M1848 1090 c3 -25 9 -39 16 -37 6 3 10 9 9 15 -1 6 15 13 37 17 55 9
55 35 0 28 -26 -4 -40 -2 -40 6 0 6 -6 11 -13 11 -9 0 -11 -12 -9 -40z"/>
<path d="M1850 1025 c0 -11 12 -15 50 -15 38 0 50 4 50 15 0 11 -12 15 -50 15
-38 0 -50 -4 -50 -15z"/>
<path d="M415 1013 c-3 -10 11 -13 51 -13 37 0 54 4 52 11 -5 16 -97 17 -103
2z"/>
<path d="M1901 987 c-6 -6 -11 -17 -11 -24 0 -7 -4 -13 -10 -13 -5 0 -10 9
-10 20 0 11 -4 20 -10 20 -14 0 -13 -43 2 -58 19 -19 38 -14 48 14 10 25 33
25 28 -1 -2 -8 2 -14 7 -14 6 -1 9 6 9 14 -1 8 -2 21 -3 29 -1 18 -36 27 -50
13z"/>
<path d="M438 953 c-10 -2 -18 -11 -18 -18 0 -11 7 -12 32 -4 43 12 46 5 9
-17 -18 -10 -31 -27 -31 -37 0 -17 5 -19 38 -13 20 3 43 6 50 6 6 0 12 7 12
15 0 18 3 17 -38 6 -20 -6 -32 -6 -32 0 0 5 6 9 13 9 16 0 47 32 47 48 0 12
-47 14 -82 5z"/>
<path d="M1840 884 c-15 -39 -13 -42 38 -57 34 -10 49 -11 54 -3 4 6 -1 15
-12 20 -26 12 -25 24 2 28 12 2 24 9 26 17 4 11 -2 13 -27 8 -18 -4 -31 -2
-31 3 0 22 -41 9 -50 -16z m40 -12 c0 -13 -12 -22 -22 -16 -10 6 -1 24 13 24
5 0 9 -4 9 -8z"/>
<path d="M560 866 c0 -2 8 -10 18 -17 15 -13 16 -12 3 4 -13 16 -21 21 -21 13z"/>
<path d="M472 824 c-43 -30 -19 -101 31 -89 29 8 32 12 17 35 -9 13 -11 13
-20 0 -7 -12 -12 -12 -22 -2 -10 10 -9 15 4 28 20 21 58 10 58 -17 0 -10 7
-19 14 -19 21 0 1 57 -24 70 -25 13 -32 13 -58 -6z"/>
<path d="M1811 789 c-6 -18 -11 -33 -11 -34 0 -4 91 -37 94 -34 10 16 26 63
22 66 -8 8 -26 -7 -26 -23 0 -8 -4 -14 -8 -14 -17 0 -21 13 -11 31 7 13 6 19
-1 19 -6 0 -13 -7 -16 -15 -10 -25 -27 -17 -20 10 9 36 -10 31 -23 -6z"/>
<path d="M1785 729 c-5 -8 2 -21 18 -35 35 -30 34 -35 -4 -22 -28 10 -34 8
-50 -13 -10 -13 -19 -27 -19 -30 0 -3 17 -18 37 -32 26 -19 40 -23 48 -16 7 7
5 13 -6 19 -9 5 -27 19 -40 30 l-24 21 51 -6 c74 -9 85 10 35 59 -28 27 -41
34 -46 25z"/>
<path d="M533 707 c-32 -17 -40 -26 -33 -36 7 -13 11 -13 25 -1 14 12 18 12
26 -1 6 -10 3 -17 -11 -23 -21 -10 -26 -21 -11 -30 12 -8 92 37 88 49 -2 6
-13 10 -24 10 -28 0 -40 13 -19 21 16 6 23 34 9 34 -5 -1 -27 -11 -50 -23z"/>
<path d="M600 601 c-32 -26 -33 -30 -22 -55 14 -32 43 -34 83 -6 18 13 26 26
22 36 -5 12 -10 11 -32 -10 -15 -14 -32 -26 -39 -26 -21 0 -13 28 13 48 24 19
33 42 17 42 -4 0 -23 -13 -42 -29z"/>
<path d="M1705 600 c-3 -5 6 -21 22 -34 l28 -25 -40 14 c-29 10 -44 10 -53 2
-11 -9 -6 -18 25 -47 42 -41 72 -36 33 5 -26 28 -24 30 16 15 34 -13 61 4 43
27 -23 28 -67 54 -74 43z"/>
<path d="M670 505 c-43 -23 -44 -27 -11 -29 14 -1 24 -15 37 -51 5 -17 10 -12
29 30 16 35 20 54 13 63 -13 16 -15 15 -68 -13z m44 -20 c-4 -8 -10 -12 -15
-9 -11 6 -2 24 11 24 5 0 7 -7 4 -15z"/>
<path d="M1627 524 c-3 -4 5 -21 19 -39 33 -43 12 -61 -23 -20 -17 19 -28 24
-35 17 -6 -6 0 -20 20 -43 27 -30 32 -32 56 -21 33 15 34 48 1 85 -26 29 -28
30 -38 21z"/>
<path d="M886 373 c-13 -13 -5 -23 30 -38 44 -18 44 -18 44 -2 0 15 -64 49
-74 40z"/>
<path d="M1017 362 c-10 -2 -16 -9 -14 -15 3 -7 10 -11 17 -9 7 2 10 -3 8 -10
-18 -47 -19 -58 -5 -58 8 0 18 12 21 28 4 15 9 34 12 43 5 18 -11 27 -39 21z"/>
<path d="M1302 354 c-24 -16 -21 -37 3 -27 11 4 15 -3 15 -26 0 -21 5 -31 15
-31 13 0 15 7 9 38 -10 58 -16 64 -42 46z"/>
<path d="M1423 357 c-18 -5 -33 -16 -33 -23 0 -17 5 -17 47 -2 54 19 41 42
-14 25z"/>
<path d="M1096 334 c-8 -20 12 -47 31 -40 7 3 13 1 13 -4 0 -6 -11 -10 -25
-10 -14 0 -25 -4 -25 -10 0 -12 40 -13 58 -1 8 5 12 22 10 42 -2 28 -7 35 -29
37 -18 2 -29 -3 -33 -14z m41 -20 c-9 -9 -28 6 -21 18 4 6 10 6 17 -1 6 -6 8
-13 4 -17z"/>
<path d="M1213 343 c-7 -2 -13 -12 -13 -20 0 -9 6 -13 15 -9 12 4 15 -3 15
-30 0 -21 4 -34 11 -32 6 2 10 7 10 11 -1 4 -1 25 -1 47 0 39 -7 46 -37 33z"/>
<path d="M961 274 c0 -11 3 -14 6 -6 3 7 2 16 -1 19 -3 4 -6 -2 -5 -13z"/>
<path d="M1048 223 c7 -3 16 -2 19 1 4 3 -2 6 -13 5 -11 0 -14 -3 -6 -6z"/>
<path d="M1960 1659 c0 -5 5 -7 10 -4 6 3 10 8 10 11 0 2 -4 4 -10 4 -5 0 -10
-5 -10 -11z"/>
<path d="M160 1281 c0 -6 4 -13 10 -16 6 -3 7 1 4 9 -7 18 -14 21 -14 7z"/>
<path d="M768 73 c7 -3 16 -2 19 1 4 3 -2 6 -13 5 -11 0 -14 -3 -6 -6z"/>
</g>
</svg>
