<?xml version="1.0" standalone="no"?>
<!DOCTYPE svg PUBLIC "-//W3C//DTD SVG 20010904//EN"
 "http://www.w3.org/TR/2001/REC-SVG-20010904/DTD/svg10.dtd">
<svg version="1.0" xmlns="http://www.w3.org/2000/svg"
 width="201.000000pt" height="199.000000pt" viewBox="0 0 201.000000 199.000000"
 preserveAspectRatio="xMidYMid meet">
<metadata>
Created by potrace 1.10, written by Peter Selinger 2001-2011
</metadata>
<g transform="translate(0.000000,199.000000) scale(0.100000,-0.100000)"
fill="#8e2aec" stroke="none">
<path d="M900 1973 c-45 -6 -134 -25 -180 -40 -166 -51 -324 -154 -438 -286
-88 -101 -173 -249 -188 -326 -4 -17 -11 -34 -15 -37 -5 -3 -9 -18 -9 -34 0
-16 -5 -41 -10 -56 -6 -15 -13 -77 -16 -138 -6 -120 3 -187 44 -346 8 -32 75
-177 105 -225 40 -67 151 -187 222 -240 100 -75 201 -128 300 -158 145 -43
119 -40 305 -39 96 0 152 5 195 17 33 9 74 20 90 24 17 4 39 12 50 18 11 5 43
20 70 33 149 69 284 189 393 348 31 46 96 187 111 242 7 25 17 59 22 77 17 55
22 245 9 343 -7 51 -23 122 -37 159 -13 36 -28 77 -33 91 -11 33 -39 85 -75
139 -17 24 -37 55 -47 69 -17 26 -140 145 -180 174 -42 32 -101 70 -122 79
-12 5 -28 13 -36 17 -54 30 -92 45 -173 66 -51 13 -99 24 -107 25 -39 4 -228
7 -250 4z m79 -39 c27 -35 26 -44 -3 -44 -22 0 -66 43 -66 64 0 18 51 3 69
-20z m73 9 c16 -19 33 -63 24 -63 -23 0 -58 25 -71 50 -15 29 -15 30 8 30 13
0 31 -8 39 -17z m63 11 c14 -6 50 -73 42 -80 -12 -12 -51 15 -68 47 -20 41
-14 48 26 33z m-206 -36 l20 -33 -20 -3 c-20 -4 -79 42 -79 60 0 4 13 8 29 8
22 0 34 -8 50 -32z m294 15 c22 -26 33 -73 16 -73 -23 0 -36 13 -52 53 -15 35
-15 37 2 37 10 0 25 -8 34 -17z m-376 -25 c28 -26 29 -34 3 -41 -21 -5 -80 35
-80 54 0 18 54 9 77 -13z m453 7 c15 -18 31 -85 20 -85 -17 0 -48 37 -58 68
-10 28 -9 32 7 32 10 0 24 -7 31 -15z m-524 -32 l26 -28 -24 -6 c-25 -6 -92
36 -82 52 11 19 56 8 80 -18z m592 11 c15 -11 22 -25 22 -50 0 -35 -5 -40 -29
-25 -13 9 -34 91 -22 91 4 0 17 -7 29 -16z m-664 -39 l30 -24 -27 -6 c-29 -8
-102 29 -91 46 10 17 59 8 88 -16z m740 6 c12 -13 16 -32 14 -58 l-3 -38 -22
23 c-15 14 -23 34 -23 57 0 39 9 44 34 16z m-244 -11 c10 -5 30 -10 44 -10 14
0 28 -4 31 -10 3 -5 19 -10 36 -10 16 0 29 -4 29 -10 0 -5 12 -13 28 -16 63
-16 233 -138 299 -215 146 -171 217 -380 207 -604 -3 -49 -5 -100 -5 -112 1
-12 -4 -25 -9 -28 -6 -3 -10 -16 -10 -27 0 -12 -5 -38 -11 -57 -16 -48 -81
-183 -96 -199 -7 -7 -13 -17 -13 -21 0 -5 -10 -19 -22 -33 -13 -14 -39 -43
-58 -65 -34 -39 -145 -136 -165 -144 -5 -2 -35 -17 -65 -34 -53 -28 -164 -71
-205 -80 -98 -20 -236 -24 -325 -10 -81 13 -106 18 -115 25 -5 3 -32 15 -60
25 -52 19 -108 47 -160 80 -36 22 -149 116 -154 128 -1 4 -11 16 -21 25 -23
21 -100 137 -121 183 -34 72 -69 175 -69 206 0 11 -3 23 -7 27 -4 4 -8 22 -9
39 -5 136 -5 168 1 212 19 130 73 273 139 370 36 52 118 150 132 158 8 4 25
18 39 30 47 42 60 52 85 64 14 7 32 17 40 22 8 5 22 12 30 15 8 3 22 10 30 14
50 28 84 42 104 42 13 0 26 3 30 8 26 26 351 36 396 12z m-573 -24 l36 -25
-28 -7 c-19 -5 -39 -1 -62 12 -32 17 -33 19 -17 31 24 18 30 17 71 -11z m887
1 c13 -9 17 -24 14 -55 -3 -40 -4 -42 -21 -29 -12 8 -20 28 -21 55 -2 45 1 49
28 29z m-960 -34 c28 -13 33 -19 25 -30 -6 -7 -18 -13 -27 -13 -21 0 -82 23
-82 30 0 5 31 24 47 29 1 1 18 -7 37 -16z m1031 -13 c13 -14 16 -28 11 -55
-12 -60 -46 -36 -46 32 0 47 8 53 35 23z m-1095 -35 c35 -18 36 -21 12 -34
-13 -7 -32 -6 -62 3 l-43 13 24 16 c29 21 33 21 69 2z m1166 -70 c-4 -20 -12
-35 -18 -33 -22 8 -31 35 -24 73 l7 38 21 -21 c17 -16 19 -27 14 -57z m-1196
5 c0 -4 -10 -12 -22 -19 -18 -9 -31 -9 -63 2 l-40 14 29 15 c23 12 37 13 63 5
18 -6 33 -13 33 -17z m1246 -5 c13 -20 14 -30 4 -61 -12 -35 -13 -36 -31 -18
-16 17 -17 25 -7 62 6 23 12 42 14 42 2 0 11 -11 20 -25z m-1312 -35 c19 0 19
-1 1 -20 -14 -16 -29 -20 -62 -18 -24 1 -43 5 -43 9 0 16 46 40 65 35 11 -3
29 -6 39 -6z m1376 -52 c0 -17 -15 -54 -26 -67 -3 -3 -10 4 -17 14 -10 13 -11
28 -4 61 10 42 11 43 29 27 10 -9 18 -25 18 -35z m-1421 -15 c3 -2 -2 -10 -11
-19 -10 -10 -29 -14 -59 -12 l-44 3 24 22 c18 17 31 21 55 16 17 -3 33 -8 35
-10z m1471 -45 c0 -17 -30 -68 -40 -68 -19 0 -22 48 -5 81 17 31 18 32 31 14
8 -10 14 -23 14 -27z m-1510 -15 c0 -21 -37 -43 -72 -43 -42 0 -46 5 -21 32
15 17 93 27 93 11z m1545 -40 c4 -18 1 -34 -12 -51 -36 -48 -58 -12 -28 45 22
40 31 41 40 6z m-1595 -43 c-9 -18 -21 -22 -82 -35 -22 -4 -23 4 -2 33 11 16
25 22 55 22 37 0 39 -2 29 -20z m1630 -40 c0 -17 -10 -40 -24 -55 l-24 -25 -6
25 c-4 17 1 35 16 59 26 39 38 38 38 -4z m-1660 -19 c0 -13 -29 -41 -43 -41
-7 0 -22 -3 -34 -6 -29 -8 -30 9 -3 36 20 20 80 28 80 11z m1690 -60 c0 -28
-41 -77 -53 -64 -13 12 -7 45 14 74 24 34 39 30 39 -10z m-1720 -20 c-12 -24
-21 -30 -61 -41 -27 -8 -30 -7 -27 13 3 24 40 47 76 47 19 0 21 -3 12 -19z
m1725 -91 c-16 -17 -32 -30 -37 -30 -18 0 -6 46 19 72 27 28 28 29 37 8 7 -16
3 -27 -19 -50z m-1749 13 c-6 -20 -74 -58 -84 -48 -13 13 20 55 50 63 39 11
42 9 34 -15z m1784 -43 c0 -19 -9 -38 -27 -55 -34 -31 -43 -31 -43 -3 0 17 54
88 67 88 2 0 3 -13 3 -30z m-1799 -32 c-4 -12 -24 -32 -44 -45 l-37 -23 0 23
c0 32 37 64 77 66 9 1 10 -6 4 -21z m1805 -71 c-3 -12 -19 -30 -36 -39 l-30
-17 0 28 c0 22 8 34 33 50 34 21 43 15 33 -22z m-1806 7 c0 -15 -23 -45 -50
-64 l-30 -21 0 30 c0 23 7 34 28 45 28 16 52 20 52 10z m1810 -74 c0 -25 -6
-33 -35 -47 -39 -19 -50 -14 -40 16 4 15 50 53 73 60 1 1 2 -13 2 -29z m-1851
-63 c-19 -15 -35 -23 -37 -17 -8 23 8 56 35 72 27 16 28 16 32 -5 2 -15 -7
-30 -30 -50z m1847 -33 c-6 -15 -74 -49 -82 -41 -12 12 17 52 47 66 36 17 48
9 35 -25z m-1806 3 c0 -20 -48 -77 -65 -77 -3 0 -5 13 -5 29 0 20 8 36 28 50
35 26 42 26 42 -2z m1791 -85 c-12 -23 -81 -47 -81 -28 0 19 22 42 55 59 25
13 31 13 33 2 2 -8 -1 -22 -7 -33z m-1807 -43 c-20 -21 -30 -26 -36 -17 -12
19 1 50 31 75 l26 21 3 -25 c2 -17 -5 -35 -24 -54z m1795 -23 c-7 -15 -23 -29
-38 -32 -14 -3 -32 -8 -39 -10 -9 -3 -12 4 -10 18 2 16 16 27 48 39 25 9 46
16 48 14 1 -1 -3 -14 -9 -29z m-1749 1 c0 -26 -43 -90 -53 -80 -14 14 -6 58
15 80 27 29 38 29 38 0z m10 -124 c-16 -31 -26 -40 -31 -31 -15 23 -10 54 13
83 19 25 22 26 31 9 8 -13 4 -29 -13 -61z m1715 47 c-7 -23 -42 -40 -81 -40
-24 0 -24 1 -10 23 14 19 84 50 94 41 2 -1 1 -12 -3 -24z m-1682 -123 l-21
-42 -12 27 c-11 23 -10 31 11 64 22 36 23 37 33 15 7 -17 5 -32 -11 -64z
m1657 63 c0 -23 -41 -50 -75 -50 -19 0 -35 4 -35 8 0 16 35 40 65 45 17 2 33
5 38 6 4 0 7 -3 7 -9z m-1600 -89 c-1 -9 -9 -31 -19 -49 l-17 -33 -12 25 c-15
34 13 103 35 85 7 -6 13 -19 13 -28z m1561 11 c-17 -32 -37 -42 -75 -40 -20 2
-36 6 -36 9 0 15 38 38 70 42 19 2 39 5 43 5 4 1 3 -6 -2 -16z m-1527 -91 c-1
-54 -19 -74 -35 -38 -9 20 -9 33 1 57 17 42 35 32 34 -19z m1486 30 c0 -3 -7
-13 -17 -23 -11 -12 -30 -18 -60 -18 -47 0 -54 11 -22 33 18 13 99 19 99 8z
m-1430 -90 c0 -52 -12 -66 -34 -42 -15 17 -16 24 -5 60 10 32 15 39 26 30 7
-6 13 -28 13 -48z m1356 29 c30 0 31 -15 1 -35 -18 -12 -30 -12 -62 -4 l-39
11 23 20 c14 10 31 16 38 13 8 -3 26 -5 39 -5z m-1297 -89 c0 -14 -4 -35 -8
-46 -7 -18 -9 -18 -25 7 -13 19 -15 36 -10 63 6 34 7 35 25 19 11 -9 19 -29
18 -43z m1234 33 c36 -6 37 -8 21 -25 -19 -21 -55 -25 -85 -8 -16 8 -18 13 -8
25 13 16 18 16 72 8z m-1173 -101 c0 -40 -2 -43 -19 -34 -25 14 -33 37 -25 78
6 32 7 33 25 17 13 -12 19 -31 19 -61z m1111 46 c41 -13 42 -25 2 -40 -34 -13
-90 15 -72 37 14 17 21 17 70 3z m-1059 -36 c17 -15 27 -93 11 -93 -21 0 -43
37 -43 72 0 42 5 46 32 21z m988 -9 c33 -13 38 -19 29 -30 -15 -18 -43 -18
-80 2 -29 15 -30 16 -12 29 22 18 15 18 63 -1z m-904 -69 c9 -48 3 -58 -24
-40 -16 12 -22 26 -22 56 0 36 2 39 20 29 10 -6 22 -26 26 -45z m842 25 c18
-11 30 -25 27 -30 -10 -17 -62 -11 -86 10 -21 17 -22 21 -9 30 21 14 31 13 68
-10z m-772 -49 c3 -14 8 -34 11 -43 5 -22 -6 -23 -34 -3 -13 9 -22 28 -25 54
-3 37 -2 38 20 28 12 -6 25 -22 28 -36z m709 5 l30 -24 -28 -7 c-20 -5 -36 -1
-62 16 -23 16 -30 26 -22 31 22 14 52 8 82 -16z m-657 -3 c11 -10 25 -33 30
-50 10 -29 9 -33 -7 -33 -24 0 -41 21 -51 65 -9 39 -2 43 28 18z m576 -22 c28
-23 33 -30 20 -35 -30 -12 -51 -6 -78 23 -29 30 -28 32 15 40 3 0 23 -12 43
-28z m-484 -10 c24 -46 30 -71 16 -71 -22 0 -55 33 -62 63 -5 23 -3 27 15 27
11 0 25 -9 31 -19z m408 -16 l37 -34 -37 -1 c-28 0 -41 6 -58 27 -16 20 -18
28 -8 35 20 12 26 10 66 -27z m-332 1 c6 -6 16 -23 22 -38 10 -25 9 -28 -6
-28 -27 0 -48 21 -60 58 -11 32 -10 33 11 26 12 -3 27 -11 33 -18z m76 -3 c9
-10 21 -28 27 -40 11 -21 9 -23 -14 -23 -18 0 -31 10 -45 33 -11 17 -20 35
-20 40 0 14 37 7 52 -10z m89 -14 c35 -38 36 -49 6 -49 -25 0 -46 19 -66 58
-10 19 -9 22 10 22 11 0 34 -14 50 -31z m94 -5 l27 -35 -32 3 c-23 2 -40 13
-58 36 l-25 32 31 0 c22 0 36 -9 57 -36z"/>
<path d="M1128 1812 c-16 -2 -28 -7 -28 -12 0 -16 12 -40 21 -40 4 0 6 6 3 14
-3 8 -1 17 5 21 7 4 8 -1 4 -12 -5 -15 -4 -16 8 -7 14 12 68 0 56 -12 -3 -3
-14 -1 -25 5 -15 8 -23 7 -32 -4 -7 -8 -21 -15 -31 -15 -19 0 -32 -13 -22 -23
3 -4 15 -1 27 5 20 10 20 9 5 -7 -13 -13 -21 -15 -37 -6 -15 8 -23 8 -27 0
-12 -18 9 -27 73 -28 18 -1 31 -5 28 -10 -3 -5 -24 -7 -46 -4 -25 4 -40 2 -40
-5 0 -6 14 -12 32 -14 25 -2 34 -9 39 -28 5 -21 7 -22 13 -8 6 12 16 15 42 11
43 -7 46 13 4 22 -16 4 -30 10 -30 15 0 11 58 -8 66 -21 7 -13 41 -11 50 2 8
14 -14 29 -43 29 -13 0 -23 5 -23 11 0 6 6 9 14 6 20 -8 28 4 15 20 -9 10 -8
18 6 33 16 18 16 20 1 26 -9 3 -16 12 -16 20 0 17 -17 19 -22 2 -3 -8 -12 -8
-34 3 -16 8 -41 13 -56 11z m112 -52 c8 -5 11 -10 5 -10 -5 0 -17 5 -25 10 -8
5 -10 10 -5 10 6 0 17 -5 25 -10z m-73 -34 c-4 -9 -14 -16 -24 -16 -13 0 -15
2 -5 9 7 4 12 12 11 17 -3 20 2 27 12 17 7 -7 9 -19 6 -27z m43 4 c-7 -4 -9
-13 -6 -19 4 -6 0 -11 -8 -11 -19 0 -20 5 -5 31 5 11 15 17 21 13 7 -4 6 -9
-2 -14z"/>
<path d="M764 1789 c-4 -8 -7 -21 -6 -30 2 -10 -9 -21 -28 -29 -30 -12 -39
-33 -20 -45 12 -8 72 33 65 45 -3 4 1 10 8 13 8 3 14 -1 14 -9 0 -8 -4 -14 -9
-14 -4 0 -8 -11 -8 -25 0 -15 -11 -36 -25 -49 -30 -28 -33 -56 -6 -56 28 0 46
28 46 75 0 38 2 42 15 30 24 -21 77 -45 99 -45 11 0 25 9 31 19 9 17 6 20 -23
26 -56 11 -97 26 -97 36 0 5 8 9 19 9 21 0 45 25 37 38 -6 11 -54 4 -62 -9 -9
-16 -24 -10 -33 13 -6 17 -9 19 -17 7z"/>
<path d="M1389 1653 c-13 -16 -12 -17 4 -4 9 7 17 15 17 17 0 8 -8 3 -21 -13z"/>
<path d="M1440 1656 c0 -15 37 -29 52 -20 13 9 -12 34 -33 34 -11 0 -19 -6
-19 -14z"/>
<path d="M475 1629 c-4 -5 5 -20 19 -33 l26 -22 -37 -44 c-21 -25 -45 -50 -53
-57 -13 -10 -12 -12 5 -19 11 -4 30 -16 43 -27 20 -19 22 -19 22 -3 0 10 -9
25 -20 34 -20 17 -19 18 31 74 44 50 52 56 69 46 28 -18 35 -3 11 21 -25 25
-37 26 -45 5 -5 -14 -10 -12 -27 10 -22 28 -34 32 -44 15z"/>
<path d="M1412 1623 c3 -15 23 -20 56 -14 8 2 -39 30 -51 31 -5 0 -7 -8 -5
-17z"/>
<path d="M1525 1611 c-3 -5 5 -17 17 -25 12 -9 19 -18 16 -21 -3 -3 -13 1 -21
10 -17 16 -27 19 -27 8 0 -5 18 -23 40 -41 33 -27 43 -31 60 -22 l20 11 -20
21 c-11 12 -20 28 -20 37 0 8 -3 11 -7 8 -3 -4 -17 0 -29 8 -13 8 -25 11 -29
6z m66 -73 c11 -21 11 -22 -4 -9 -10 7 -17 17 -17 22 0 15 9 10 21 -13z"/>
<path d="M438 1590 c-14 -16 -13 -19 11 -33 21 -12 28 -13 38 -2 9 10 7 17
-11 33 -22 19 -24 19 -38 2z"/>
<path d="M1377 1594 c-19 -19 -6 -33 26 -27 49 9 51 17 7 28 -14 3 -29 3 -33
-1z"/>
<path d="M887 1573 c-310 -64 -505 -368 -444 -693 6 -32 38 -112 67 -169 27
-50 153 -181 175 -181 8 0 15 -4 15 -9 0 -14 138 -68 200 -79 151 -26 258 -4
422 84 55 30 152 140 190 215 56 113 68 167 64 294 -3 83 -9 123 -26 165 -113
284 -377 433 -663 373z m97 -9 c16 -16 21 -34 9 -34 -10 0 -43 32 -43 42 0 13
17 9 34 -8z m50 0 c16 -16 21 -34 9 -34 -10 0 -43 32 -43 42 0 13 17 9 34 -8z
m56 -19 c0 -8 -4 -15 -8 -15 -13 0 -32 23 -32 37 0 11 5 11 20 3 11 -6 20 -17
20 -25z m-140 5 c8 -16 8 -20 -3 -20 -8 0 -22 9 -32 20 -18 19 -17 20 3 20 12
0 26 -9 32 -20z m180 -1 c7 -11 9 -23 6 -26 -8 -9 -36 17 -36 33 0 21 18 17
30 -7z m-232 -1 c7 -7 12 -16 12 -20 0 -15 -27 -8 -45 12 -18 19 -17 20 1 20
11 0 25 -5 32 -12z m270 0 c7 -7 12 -21 12 -31 0 -16 -3 -17 -14 -8 -15 13
-28 51 -17 51 4 0 12 -5 19 -12z m-307 -36 c-5 -2 -20 2 -32 8 -17 10 -19 14
-8 21 9 5 20 2 32 -9 10 -9 14 -18 8 -20z m362 2 c5 -29 -8 -32 -23 -5 -14 27
-13 41 4 35 8 -3 16 -16 19 -30z m-414 3 c6 -8 8 -17 5 -20 -8 -7 -54 14 -54
25 0 13 36 9 49 -5z m171 -116 l0 -129 -55 -17 c-56 -18 -93 -45 -61 -45 9 0
16 -5 16 -10 0 -21 -57 22 -138 103 l-83 84 38 31 c53 42 136 79 213 96 36 8
66 14 68 15 1 1 2 -57 2 -128z m32 107 c-6 -6 -15 -8 -19 -4 -4 4 -1 11 7 16
8 5 17 7 19 4 3 -2 -1 -10 -7 -16z m246 10 c16 -16 16 -51 0 -46 -13 5 -31 58
-19 58 4 0 12 -5 19 -12z m-81 -24 c27 -10 76 -36 111 -58 l62 -40 -91 -92
-92 -92 -26 19 c-24 18 -57 29 -88 31 -16 2 -16 6 -22 137 -1 29 -3 32 -16 21
-9 -7 -18 -10 -21 -7 -9 9 5 27 21 27 17 0 23 18 19 53 -3 28 -3 29 46 24 27
-3 71 -13 97 -23z m-411 1 c16 -12 17 -14 2 -15 -25 0 -49 11 -42 21 7 13 17
11 40 -6z m244 -15 c-8 -5 -17 -7 -19 -4 -3 3 1 9 9 14 8 5 17 7 19 4 3 -3 -1
-9 -9 -14z m298 -15 c3 -25 2 -27 -12 -16 -19 16 -22 55 -3 49 6 -3 14 -17 15
-33z m-577 0 c1 -16 -16 -16 -36 0 -19 15 -19 15 8 13 15 -2 28 -7 28 -13z
m613 -28 c-9 -24 -24 -11 -24 21 0 24 2 25 15 11 9 -9 13 -23 9 -32z m-328 18
c-21 -16 -32 -13 -21 4 3 6 14 11 23 11 15 -1 15 -2 -2 -15z m-316 -16 c0 -12
-47 -12 -54 0 -4 5 0 11 6 14 18 5 48 -3 48 -14z m683 -29 c-3 -11 -9 -20 -14
-20 -14 0 -21 19 -14 41 9 27 35 7 28 -21z m-719 -1 c-3 -5 -20 -9 -37 -9 -29
1 -30 2 -14 14 19 15 61 10 51 -5z m348 -21 c-6 -6 -15 -8 -19 -4 -4 4 -1 11
7 16 8 5 17 7 19 4 3 -2 -1 -10 -7 -16z m403 12 c9 -14 -4 -52 -16 -45 -12 8
-12 55 0 55 6 0 13 -5 16 -10z m-790 -20 c8 -13 -20 -24 -41 -16 -20 8 -9 26
16 26 10 0 22 -5 25 -10z m35 -10 c0 -5 -7 -13 -16 -18 -12 -7 2 -25 70 -93
l85 -85 -24 -49 c-14 -26 -25 -59 -25 -72 0 -23 -1 -23 -125 -23 -112 0 -125
2 -126 18 -5 82 45 207 120 299 26 32 41 41 41 23z m732 -22 c62 -69 96 -148
123 -283 l6 -31 -126 -1 c-90 -1 -127 2 -129 10 -18 66 -31 99 -43 108 -7 6
-13 15 -13 19 0 4 38 44 84 90 l85 83 -22 18 c-15 12 -17 18 -8 19 8 0 27 -15
43 -32z m53 -7 c-3 -12 -11 -21 -16 -21 -10 0 -12 21 -3 45 10 24 27 2 19 -24z
m-425 19 c-19 -13 -30 -13 -30 0 0 6 10 10 23 10 18 0 19 -2 7 -10z m-342 -12
c-2 -6 -10 -14 -16 -16 -7 -2 -10 2 -6 12 7 18 28 22 22 4z m670 4 c9 -6 4
-16 -17 -36 -16 -16 -34 -25 -40 -22 -20 13 -11 27 12 22 12 -3 16 -3 10 0
-23 10 -14 26 9 18 20 -6 21 -5 9 10 -14 17 -5 21 17 8z m-753 -12 c-3 -5 -17
-10 -31 -10 -14 0 -22 4 -19 10 3 6 17 10 31 10 14 0 22 -4 19 -10z m99 -22
c-6 -20 -5 -21 10 -9 14 11 16 11 16 -1 0 -24 -12 -29 -31 -12 -17 16 -16 44
3 44 5 0 6 -10 2 -22z m331 12 c-3 -5 -13 -10 -21 -10 -8 0 -14 5 -14 10 0 6
9 10 21 10 11 0 17 -4 14 -10z m455 -14 c0 -8 -7 -19 -15 -26 -13 -10 -15 -9
-15 12 0 14 3 28 6 31 9 9 24 -2 24 -17z m-910 -16 c0 -5 -3 -10 -7 -11 -5 0
-19 -2 -32 -5 -20 -4 -22 -2 -11 11 14 17 50 20 50 5z m455 0 c-3 -5 -13 -10
-21 -10 -8 0 -14 5 -14 10 0 6 9 10 21 10 11 0 17 -4 14 -10z m-239 -69 c-13
-20 -28 -12 -22 12 3 12 3 16 0 10 -10 -23 -26 -14 -18 9 6 20 5 21 -10 9 -14
-11 -16 -11 -16 1 0 29 14 28 43 -1 16 -16 26 -34 23 -40z m502 50 c3 -8 -1
-12 -9 -9 -7 2 -15 10 -17 17 -3 8 1 12 9 9 7 -2 15 -10 17 -17z m212 2 c0
-23 -17 -49 -26 -41 -9 10 4 58 16 58 6 0 10 -8 10 -17z m-477 -10 c-7 -2 -19
-2 -25 0 -7 3 -2 5 12 5 14 0 19 -2 13 -5z m238 -9 c12 -15 11 -16 -11 -9 -22
7 -23 6 -11 -9 11 -14 11 -16 -1 -16 -24 0 -29 12 -11 32 20 22 17 22 34 2z
m-721 -9 c-13 -16 -50 -21 -50 -7 0 15 13 22 38 22 21 0 22 -2 12 -15z m508
-15 c5 -13 3 -13 -11 -1 -13 10 -17 10 -17 1 0 -10 -3 -10 -15 0 -9 7 -15 8
-15 2 0 -5 -13 -9 -29 -8 -17 1 -27 -2 -24 -7 3 -5 -4 -6 -17 -2 -15 5 -20 4
-16 -4 4 -6 3 -11 -3 -11 -29 0 -16 20 21 33 55 18 120 17 126 -3z m463 -33
c-18 -18 -25 1 -11 30 l14 28 4 -24 c2 -13 -1 -28 -7 -34z m-431 27 c0 -8 -4
-12 -10 -9 -5 3 -10 10 -10 16 0 5 5 9 10 9 6 0 10 -7 10 -16z m50 -23 c0 -12
-2 -13 -9 -3 -4 8 -12 13 -17 12 -5 -1 -10 3 -12 8 -2 6 6 8 17 5 12 -3 21
-13 21 -22z m-606 5 c-5 -14 -54 -29 -54 -17 0 13 24 31 42 31 11 0 15 -5 12
-14z m282 -8 c-3 -13 -3 -17 0 -10 3 6 10 12 16 12 6 0 5 -6 -2 -16 -12 -13
-15 -13 -28 0 -15 14 -9 36 9 36 6 0 8 -10 5 -22z m294 -6 c66 -26 119 -113
120 -192 0 -64 -38 -139 -86 -173 -22 -15 -43 -27 -46 -27 -4 0 -19 -5 -33
-10 -21 -8 -25 -13 -16 -23 9 -11 0 -14 -44 -14 -30 0 -55 4 -55 8 0 5 -7 6
-15 3 -10 -4 -15 0 -14 12 0 11 3 14 6 6 2 -6 9 -9 15 -6 6 4 14 0 19 -7 7
-11 9 -11 9 -1 0 8 5 10 12 6 17 -11 48 -12 48 -3 0 4 -19 10 -42 14 -135 22
-219 160 -173 283 46 124 169 176 295 124z m124 19 c8 -12 -21 -34 -34 -26 -5
3 -10 -1 -10 -9 0 -9 -4 -16 -8 -16 -13 0 -32 23 -32 40 1 12 3 12 14 -3 9
-11 17 -14 20 -8 4 6 14 7 24 4 15 -6 15 -5 3 10 -12 15 -11 17 2 17 9 0 18
-4 21 -9z m302 -59 c-15 -15 -16 -15 -16 4 0 28 24 52 28 28 2 -9 -3 -24 -12
-32z m-1016 18 c0 -12 -40 -33 -48 -25 -4 4 2 13 12 21 23 16 36 18 36 4z
m347 4 c-3 -3 -12 -4 -19 -1 -8 3 -5 6 6 6 11 1 17 -2 13 -5z m354 -39 c10 7
12 -8 2 -18 -10 -11 -35 32 -26 46 5 8 9 5 11 -11 2 -12 8 -20 13 -17z m-374
19 c-3 -3 -12 -4 -19 -1 -8 3 -5 6 6 6 11 1 17 -2 13 -5z m709 -92 c-23 -23
-32 -7 -12 22 14 22 14 25 1 20 -18 -7 -20 17 -2 35 10 10 14 5 21 -24 7 -29
5 -40 -8 -53z m-1051 59 c-3 -6 -15 -16 -26 -21 -14 -8 -19 -7 -19 3 0 8 10
19 23 24 25 12 32 10 22 -6z m325 9 c0 -5 -7 -10 -16 -10 -8 0 -12 5 -9 10 3
6 10 10 16 10 5 0 9 -4 9 -10z m-15 -30 c-3 -5 -10 -10 -16 -10 -5 0 -9 5 -9
10 0 6 7 10 16 10 8 0 12 -4 9 -10z m417 -12 c-7 -7 -12 -8 -12 -2 0 14 12 26
19 19 2 -3 -1 -11 -7 -17z m-734 -10 c-6 -16 -48 -43 -48 -30 0 13 28 42 42
42 5 0 8 -5 6 -12z m309 -4 c-3 -3 -12 -4 -19 -1 -8 3 -5 6 6 6 11 1 17 -2 13
-5z m474 -64 c5 0 9 -9 9 -20 0 -23 -6 -22 133 -22 59 0 107 -3 107 -6 0 -4
-7 -36 -15 -72 -20 -85 -44 -134 -112 -229 -2 -3 -44 35 -93 84 l-89 88 26 49
c14 27 26 66 27 86 1 31 -2 36 -18 34 -17 -3 -18 -2 -7 12 8 9 9 16 3 16 -14
0 -24 29 -15 43 4 7 13 -3 21 -26 8 -20 19 -37 23 -37z m-481 40 c0 -5 -4 -10
-10 -10 -5 0 -7 -6 -4 -14 3 -7 -2 -16 -10 -19 -9 -4 -16 -2 -16 3 0 6 5 10
11 10 5 0 7 5 4 10 -7 12 2 30 16 30 5 0 9 -4 9 -10z m762 -32 c-12 -12 -22
-16 -26 -10 -4 6 4 20 16 32 29 27 38 6 10 -22z m-1068 7 c-9 -22 -44 -40 -44
-22 0 17 20 37 37 37 7 0 10 -7 7 -15z m1006 -31 c0 -8 -4 -14 -10 -14 -5 0
-10 9 -10 21 0 11 5 17 10 14 6 -3 10 -13 10 -21z m30 0 c0 -12 4 -12 25 2 22
14 25 14 25 1 0 -8 -6 -20 -14 -26 -19 -16 -56 6 -56 32 0 10 5 15 10 12 6 -3
10 -13 10 -21z m-1012 -7 l-5 -24 124 2 c109 2 123 0 123 -14 0 -10 12 -41 27
-70 l26 -54 -86 -83 c-48 -46 -92 -81 -99 -79 -14 6 -21 15 -61 87 -42 76 -81
258 -55 258 6 0 8 -11 6 -23z m32 -3 c0 -8 -4 -12 -10 -9 -5 3 -10 13 -10 21
0 8 5 12 10 9 6 -3 10 -13 10 -21z m27 11 c9 -25 -4 -29 -17 -6 -7 15 -7 21 0
21 6 0 13 -7 17 -15z m33 -11 c0 -8 -4 -12 -10 -9 -5 3 -10 13 -10 21 0 8 5
12 10 9 6 -3 10 -13 10 -21z m30 5 c0 -11 -4 -17 -10 -14 -5 3 -10 13 -10 21
0 8 5 14 10 14 6 0 10 -9 10 -21z m30 0 c0 -11 -4 -17 -10 -14 -5 3 -10 13
-10 21 0 8 5 14 10 14 6 0 10 -9 10 -21z m30 0 c0 -11 -4 -17 -10 -14 -5 3
-10 13 -10 21 0 8 5 14 10 14 6 0 10 -9 10 -21z m30 0 c0 -11 -4 -17 -10 -14
-5 3 -10 13 -10 21 0 8 5 14 10 14 6 0 10 -9 10 -21z m43 3 c2 7 8 9 13 5 11
-11 -15 -27 -33 -20 -7 3 -13 13 -13 22 1 14 2 14 14 -2 10 -13 15 -15 19 -5z
m547 -3 c0 -5 -4 -9 -10 -9 -5 0 -10 7 -10 16 0 8 5 12 10 9 6 -3 10 -10 10
-16z m28 3 c6 -18 -15 -14 -22 4 -4 10 -1 14 6 12 6 -2 14 -10 16 -16z m32 -3
c0 -5 -4 -9 -10 -9 -5 0 -10 7 -10 16 0 8 5 12 10 9 6 -3 10 -10 10 -16z m30
6 c0 -8 -4 -15 -10 -15 -5 0 -10 7 -10 15 0 8 5 15 10 15 6 0 10 -7 10 -15z
m30 0 c0 -8 -4 -15 -10 -15 -5 0 -10 7 -10 15 0 8 5 15 10 15 6 0 10 -7 10
-15z m30 0 c0 -8 -4 -15 -10 -15 -5 0 -10 7 -10 15 0 8 5 15 10 15 6 0 10 -7
10 -15z m-997 -40 c-25 -19 -30 1 -7 27 17 18 19 18 22 3 2 -9 -5 -23 -15 -30z
m792 25 c-3 -5 -11 -10 -16 -10 -6 0 -7 5 -4 10 3 6 11 10 16 10 6 0 7 -4 4
-10z m-479 -25 c-3 -8 -1 -15 3 -15 5 0 14 -14 20 -31 13 -39 14 -49 2 -49
-11 0 -43 89 -35 101 9 15 17 10 10 -6z m474 -5 c0 -5 -7 -10 -16 -10 -8 0
-12 5 -9 10 3 6 10 10 16 10 5 0 9 -4 9 -10z m320 -5 c0 -15 -40 -37 -50 -28
-5 4 37 43 46 43 2 0 4 -7 4 -15z m-1080 -4 c0 -5 -9 -19 -20 -32 -19 -23 -19
-23 -20 -3 0 20 17 44 32 44 4 0 8 -4 8 -9z m755 -21 c-3 -5 -10 -10 -16 -10
-5 0 -9 5 -9 10 0 6 7 10 16 10 8 0 12 -4 9 -10z m316 -29 c-10 -18 -51 -36
-51 -23 0 12 15 29 30 35 27 10 31 7 21 -12z m-1085 -29 c-14 -14 -16 -14 -16
-1 0 20 23 44 29 28 2 -6 -4 -18 -13 -27z m761 32 c-3 -3 -12 -4 -19 -1 -8 3
-5 6 6 6 11 1 17 -2 13 -5z m-17 -24 c0 -5 -7 -10 -16 -10 -8 0 -12 5 -9 10 3
6 10 10 16 10 5 0 9 -4 9 -10z m-379 -30 c5 0 9 -7 9 -16 0 -8 5 -12 10 -9 6
3 10 -2 10 -11 0 -15 -4 -14 -27 7 -16 13 -30 25 -32 26 -2 1 0 10 4 20 8 17
8 17 12 1 3 -10 9 -18 14 -18z m-349 -22 c-21 -22 -22 -22 -22 -2 0 27 21 47
34 34 7 -7 3 -17 -12 -32z m1058 32 c0 -12 -40 -34 -47 -26 -9 8 17 36 33 36
8 0 14 -4 14 -10z m-347 -7 c-7 -2 -19 -2 -25 0 -7 3 -2 5 12 5 14 0 19 -2 13
-5z m-21 -25 c-9 -9 -15 -9 -24 0 -9 9 -7 12 12 12 19 0 21 -3 12 -12z m24
-13 c-3 -9 -10 -13 -16 -10 -31 19 1 -21 75 -93 l84 -84 -27 -23 c-64 -55
-280 -133 -283 -102 0 7 -2 62 -2 122 -2 108 -2 110 -24 107 -13 -2 -23 2 -23
8 0 6 10 10 23 9 38 -4 104 20 149 55 45 35 54 37 44 11z m-698 -37 l-13 -23
-3 23 c-4 28 21 66 26 39 2 -9 -3 -26 -10 -39z m320 34 c2 -7 -2 -10 -12 -6
-9 3 -16 11 -16 16 0 13 23 5 28 -10z m702 -7 c-7 -8 -21 -15 -31 -15 -26 0
-13 28 14 32 29 5 32 2 17 -17z m-630 -11 c0 -8 -4 -12 -10 -9 -5 3 -10 13
-10 21 0 8 5 12 10 9 6 -3 10 -13 10 -21z m255 15 c-15 -23 -105 -48 -105 -28
0 6 7 9 15 5 8 -3 15 -1 15 4 0 5 7 6 17 3 11 -5 14 -3 8 6 -6 10 -2 11 15 6
15 -5 20 -4 16 4 -4 6 0 11 9 11 9 0 13 -5 10 -11z m72 -10 c-4 -16 -3 -18 9
-8 11 9 14 8 14 -3 0 -24 -12 -29 -32 -12 -14 13 -15 20 -7 31 16 19 22 16 16
-8z m-423 5 c9 -3 14 -10 11 -15 -7 -10 -35 0 -35 12 0 11 3 11 24 3z m88 -29
c29 -14 61 -25 71 -25 15 0 17 -13 17 -125 0 -93 -3 -125 -12 -126 -58 -5
-160 30 -245 83 l-65 41 88 88 c49 49 89 89 90 89 1 0 26 -11 56 -25z m-108 9
c9 -3 14 -10 11 -15 -7 -10 -35 0 -35 12 0 11 3 11 24 3z m-244 -23 c0 -10 -7
-24 -15 -31 -12 -10 -15 -10 -15 3 0 23 11 47 21 47 5 0 9 -8 9 -19z m721 -14
c-8 -8 -11 -7 -11 4 0 20 13 34 18 19 3 -7 -1 -17 -7 -23z m257 21 c-3 -7 -18
-14 -34 -16 -28 -2 -28 -2 -10 13 24 18 49 20 44 3z m-750 -17 c3 -8 -1 -12
-9 -9 -7 2 -15 10 -17 17 -3 8 1 12 9 9 7 -2 15 -10 17 -17z m-18 -23 c0 -5
-10 -6 -22 -2 -21 6 -22 5 -8 -11 14 -17 13 -18 -8 -13 -19 5 -21 4 -11 -8 9
-11 8 -14 -3 -14 -28 0 -28 14 -2 41 24 26 54 29 54 7z m540 13 c0 -6 -4 -13
-10 -16 -5 -3 -10 1 -10 9 0 9 5 16 10 16 6 0 10 -4 10 -9z m-739 -54 c-16
-16 -26 20 -10 40 13 15 14 14 17 -7 2 -12 -1 -27 -7 -33z m944 34 c-8 -13
-55 -15 -55 -2 0 5 12 11 28 13 32 4 36 3 27 -11z m-181 -6 c-6 -16 -24 -21
-24 -7 0 11 11 22 21 22 5 0 6 -7 3 -15z m-289 -5 c-3 -5 -13 -10 -21 -10 -8
0 -14 5 -14 10 0 6 9 10 21 10 11 0 17 -4 14 -10z m315 -9 c0 -12 -20 -25 -27
-18 -7 7 6 27 18 27 5 0 9 -4 9 -9z m-750 -18 c0 -10 -4 -24 -9 -32 -12 -19
-24 3 -16 29 8 25 25 26 25 3z m435 -3 c-3 -5 -13 -10 -21 -10 -8 0 -14 5 -14
10 0 6 9 10 21 10 11 0 17 -4 14 -10z m335 1 c0 -12 -20 -25 -27 -18 -7 7 6
27 18 27 5 0 9 -4 9 -9z m105 -1 c-3 -5 -17 -10 -31 -10 -13 0 -24 5 -24 10 0
6 14 10 31 10 17 0 28 -4 24 -10z m-791 -6 c9 -3 14 -10 11 -15 -3 -4 -11 -6
-18 -3 -9 3 -13 -5 -14 -23 -1 -56 -3 -64 -13 -58 -14 9 -12 55 2 55 9 0 9 3
1 11 -9 9 -8 15 0 25 14 16 12 15 31 8z m-54 -40 c0 -23 -14 -32 -24 -16 -8
13 5 52 15 46 5 -3 9 -16 9 -30z m758 24 c-2 -6 -10 -14 -16 -16 -7 -2 -10 2
-6 12 7 18 28 22 22 4z m-353 -8 c-3 -5 -13 -10 -21 -10 -8 0 -14 5 -14 10 0
6 9 10 21 10 11 0 17 -4 14 -10z m405 0 c12 -8 12 -10 -3 -16 -22 -8 -50 3
-42 16 8 12 25 13 45 0z m-405 -30 c-3 -5 -13 -10 -21 -10 -8 0 -14 5 -14 10
0 6 9 10 21 10 11 0 17 -4 14 -10z m374 -16 c-13 -16 -19 -17 -38 -5 -21 13
-5 29 24 23 20 -3 23 -7 14 -18z m-709 -42 c0 -24 -1 -25 -16 -10 -10 9 -14
24 -10 33 9 23 26 9 26 -23z m335 28 c-3 -5 -13 -10 -21 -10 -8 0 -14 5 -14
10 0 6 9 10 21 10 11 0 17 -4 14 -10z m339 -9 c3 -5 -1 -11 -9 -15 -18 -6 -45
2 -45 15 0 12 47 12 54 0z m-634 -48 c0 -22 -2 -24 -15 -13 -8 7 -15 24 -15
37 0 22 2 24 15 13 8 -7 15 -24 15 -37z m295 27 c-3 -5 -13 -10 -21 -10 -8 0
-12 5 -9 10 3 6 13 10 21 10 8 0 12 -4 9 -10z m296 0 c5 0 9 -4 9 -10 0 -12
-47 -13 -54 -1 -8 12 6 22 22 16 7 -3 18 -5 23 -5z m-553 -45 c3 -25 2 -27
-12 -16 -19 16 -22 55 -3 49 6 -3 14 -17 15 -33z m262 15 c0 -5 -9 -10 -21
-10 -11 0 -17 5 -14 10 3 6 13 10 21 10 8 0 14 -4 14 -10z m255 0 c11 -18 -26
-23 -43 -6 -15 15 -14 16 10 16 15 0 30 -5 33 -10z m-475 -19 c14 -27 13 -41
-4 -35 -15 6 -28 54 -15 54 5 0 13 -9 19 -19z m430 -6 c10 -12 9 -15 -8 -15
-11 0 -25 7 -32 15 -10 12 -9 15 8 15 11 0 25 -7 32 -15z m-381 -17 c10 -28 9
-30 -13 -22 -17 7 -23 44 -6 44 6 0 14 -10 19 -22z m166 12 c-3 -5 4 -19 17
-32 16 -16 18 -23 8 -26 -7 -3 -19 4 -26 14 -7 11 -18 24 -23 30 -11 14 -4 24
16 24 8 0 12 -4 8 -10z m161 -4 c22 -17 11 -35 -13 -20 -19 12 -29 34 -16 34
5 0 18 -6 29 -14z m-282 -19 c15 -24 -3 -35 -20 -13 -8 11 -14 24 -14 29 0 13
22 3 34 -16z m241 3 c18 -19 17 -20 -2 -20 -22 0 -47 23 -36 33 10 11 19 8 38
-13z m-195 -11 c7 -11 9 -23 6 -26 -8 -9 -36 17 -36 33 0 21 18 17 30 -7z m58
-17 c6 -20 -27 -13 -38 7 -5 11 -10 23 -10 27 0 10 43 -21 48 -34z m87 18 c18
-19 17 -20 -3 -20 -12 0 -26 9 -32 20 -8 16 -8 20 3 20 8 0 22 -9 32 -20z"/>
<path d="M823 1450 c-35 -16 -63 -33 -63 -37 0 -4 12 -26 25 -48 14 -22 25
-52 25 -67 0 -15 5 -30 10 -33 19 -12 10 67 -11 102 -21 33 -21 35 -4 51 17
16 17 16 11 -1 -7 -22 9 -57 27 -57 7 0 19 -5 27 -10 13 -9 13 -11 0 -19 -8
-6 -11 -13 -7 -17 3 -4 13 -1 22 6 12 10 15 10 15 -3 0 -8 -8 -18 -17 -21 -12
-5 -13 -10 -5 -18 14 -14 42 7 42 32 0 10 10 25 23 33 22 16 22 16 1 16 -22 1
-34 24 -34 69 0 25 0 25 -37 12 -26 -9 -27 -9 -9 5 11 8 26 15 33 15 7 0 13 5
13 10 0 16 -22 12 -87 -20z m44 -36 c-16 -9 -31 -13 -34 -10 -3 3 5 10 18 15
37 15 47 12 16 -5z m17 -19 c-10 -8 -26 -14 -34 -14 -9 0 -4 6 10 14 33 19 49
19 24 0z m25 -32 c9 -18 9 -22 -2 -18 -7 3 -13 15 -14 26 -2 24 0 23 16 -8z"/>
<path d="M1164 1449 c-3 -6 -15 -9 -25 -6 -32 8 -47 -15 -54 -80 l-6 -62 38
-16 c54 -23 74 -13 101 46 26 58 24 75 -14 89 -17 7 -24 15 -20 25 6 17 -9 20
-20 4z m34 -47 c40 -23 23 -30 -33 -14 -30 8 -52 19 -49 24 7 11 53 6 82 -10z
m-15 -38 c45 -10 32 -27 -15 -19 -50 8 -58 12 -58 27 0 6 9 8 23 4 12 -4 34
-9 50 -12z m2 -45 c5 -6 5 -13 -2 -20 -14 -14 -83 9 -83 27 0 14 68 8 85 -7z"/>
<path d="M585 1240 c-8 -16 -15 -31 -14 -32 0 -2 -4 -15 -10 -30 -9 -23 -8
-28 4 -28 8 0 16 7 16 15 3 29 4 33 13 42 5 4 5 -6 2 -24 -6 -26 -4 -32 13
-38 12 -3 26 -3 32 1 6 3 14 2 18 -5 4 -6 16 8 29 34 12 25 17 45 11 45 -6 0
-16 -13 -22 -30 -6 -16 -15 -30 -19 -30 -4 0 -1 15 7 34 13 31 13 37 -1 50
-20 21 -22 20 -45 -6 l-19 -23 6 28 c8 36 -2 34 -21 -3z m68 -15 c4 -8 0 -27
-8 -42 -8 -15 -15 -23 -15 -16 0 6 -3 19 -7 29 -4 11 -3 15 5 10 6 -3 13 -2
17 4 3 5 1 10 -4 10 -6 0 -11 5 -11 10 0 15 17 12 23 -5z m-33 -55 c0 -5 -4
-10 -10 -10 -5 0 -10 5 -10 10 0 6 5 10 10 10 6 0 10 -4 10 -10z"/>
<path d="M717 1203 c-4 -3 1 -11 10 -18 16 -12 11 -35 -8 -35 -6 0 -7 5 -4 10
3 6 2 10 -3 10 -5 0 -17 -16 -27 -35 -14 -30 -20 -35 -38 -29 -39 13 -52 9
-55 -13 -2 -13 1 -23 7 -23 6 0 11 5 11 10 0 16 47 12 54 -5 9 -24 39 -19 31
5 -4 11 -2 20 4 20 6 0 8 6 5 14 -3 8 4 16 20 20 29 7 43 41 26 61 -14 16 -23
19 -33 8z"/>
<path d="M544 1115 c-7 -17 4 -37 17 -30 12 8 12 45 -1 45 -6 0 -13 -7 -16
-15z"/>
<path d="M1370 1261 c0 -6 5 -13 10 -16 6 -4 8 -11 4 -16 -4 -6 -13 -4 -25 7
-15 13 -21 14 -34 4 -8 -6 -13 -22 -12 -33 2 -18 -4 -23 -31 -25 -34 -3 -40
-24 -8 -30 25 -5 69 26 62 45 -10 24 4 36 23 19 15 -13 20 -14 35 -3 15 11 17
17 7 35 -12 22 -31 30 -31 13z"/>
<path d="M1406 1185 c-3 -8 -2 -23 1 -32 6 -16 5 -16 -10 -4 -9 7 -17 20 -17
27 0 8 -4 14 -8 14 -14 0 -32 -23 -32 -42 0 -11 -7 -18 -20 -18 -22 0 -27 -33
-10 -60 9 -13 13 -12 29 8 22 26 31 28 31 7 0 -9 10 -15 26 -15 23 0 25 3 19
30 -7 31 2 39 23 18 22 -22 36 5 22 46 -12 38 -43 50 -54 21z m44 -38 c0 -20
-1 -20 -16 -5 -9 9 -13 21 -9 27 10 16 25 3 25 -22z m-76 -8 c-3 -5 -10 -7
-15 -3 -5 3 -7 10 -3 15 3 5 10 7 15 3 5 -3 7 -10 3 -15z m29 -52 c-3 -5 -12
-2 -20 6 -9 8 -12 20 -8 27 5 8 11 6 20 -7 7 -10 11 -22 8 -26z m-63 18 c-7
-8 -17 -12 -22 -9 -6 4 -5 10 3 15 22 14 33 10 19 -6z"/>
<path d="M985 1120 l-18 -60 -65 0 -65 0 49 -37 c27 -20 50 -37 51 -38 3 -1
-21 -80 -33 -109 -5 -13 7 -9 49 19 l56 37 51 -37 c27 -20 50 -35 50 -32 0 2
-8 29 -19 61 l-19 57 56 39 55 40 -66 0 -65 0 -17 53 c-10 28 -21 56 -25 60
-3 4 -15 -20 -25 -53z m35 -14 c0 -2 3 -12 7 -22 4 -10 2 -15 -3 -11 -6 3 -16
1 -24 -5 -12 -8 -12 -9 2 -4 11 3 26 -3 37 -15 12 -13 21 -17 26 -10 4 7 12 8
24 1 10 -5 21 -6 25 -3 3 3 6 4 6 0 0 -3 -14 -13 -31 -21 -23 -11 -36 -13 -45
-5 -9 7 -14 6 -20 -2 -4 -7 -3 -9 3 -6 6 4 17 -1 24 -10 12 -15 12 -16 -6 -9
-18 6 -17 5 3 -14 13 -12 21 -28 18 -35 -3 -8 -1 -16 5 -19 5 -2 4 -3 -3 -1
-7 1 -12 7 -11 13 1 5 -5 9 -14 8 -9 0 -18 5 -21 13 -3 9 0 11 8 6 9 -6 11 -4
6 4 -6 9 -12 9 -25 -3 -10 -9 -23 -16 -29 -16 -6 0 -20 -10 -31 -21 l-20 -21
6 21 c5 20 43 50 43 35 0 -4 9 1 20 11 11 10 18 21 15 23 -3 3 -12 -3 -21 -14
-14 -17 -15 -17 -10 -1 3 10 2 15 -4 12 -5 -3 -20 5 -32 17 -13 13 -26 23 -30
23 -3 0 -10 3 -13 7 -4 4 5 5 20 2 19 -3 24 -1 19 7 -5 9 -3 9 7 3 17 -11 80
-14 74 -4 -3 4 -16 6 -30 5 -22 -3 -23 -1 -15 16 6 10 16 19 21 19 6 0 9 7 5
15 -3 8 -1 15 4 15 6 0 10 -2 10 -4z m-50 -136 c0 -5 -4 -10 -10 -10 -5 0 -10
5 -10 10 0 6 5 10 10 10 6 0 10 -4 10 -10z"/>
<path d="M955 1010 c3 -5 11 -10 16 -10 6 0 7 5 4 10 -3 6 -11 10 -16 10 -6 0
-7 -4 -4 -10z"/>
<path d="M1028 833 c7 -3 16 -2 19 1 4 3 -2 6 -13 5 -11 0 -14 -3 -6 -6z"/>
<path d="M1330 945 c0 -8 5 -24 12 -35 17 -26 4 -35 -24 -16 -28 20 -38 20
-38 2 0 -15 57 -39 71 -30 5 3 9 0 9 -5 0 -6 -13 -11 -28 -11 -34 0 -68 -23
-58 -38 5 -9 13 -8 29 2 12 8 39 17 60 20 40 7 46 16 22 36 -8 7 -20 30 -27
51 -11 39 -28 53 -28 24z"/>
<path d="M1401 906 c-7 -8 -8 -17 -3 -20 6 -3 15 1 21 8 7 8 8 17 3 20 -6 3
-15 -1 -21 -8z"/>
<path d="M1440 900 c0 -11 -13 -47 -30 -80 -19 -38 -26 -61 -19 -65 13 -9 13
-10 43 59 27 60 34 106 16 106 -5 0 -10 -9 -10 -20z"/>
<path d="M1350 795 c0 -8 5 -15 10 -15 6 0 10 7 10 15 0 8 -4 15 -10 15 -5 0
-10 -7 -10 -15z"/>
<path d="M663 939 c-4 -14 -12 -19 -29 -17 -13 2 -23 -1 -23 -7 1 -5 5 -9 10
-7 13 3 11 -12 -3 -26 -10 -10 -16 -8 -30 10 -9 13 -20 19 -24 15 -4 -4 1 -16
11 -27 15 -16 16 -22 5 -35 -7 -9 -10 -19 -6 -22 4 -4 11 -1 16 7 7 12 11 12
26 -1 16 -12 17 -12 11 4 -9 23 20 67 43 67 10 0 24 8 31 17 12 15 12 16 -3
10 -21 -7 -24 3 -6 21 9 9 8 12 -6 12 -10 0 -20 -9 -23 -21z"/>
<path d="M706 889 c3 -5 0 -9 -6 -9 -6 0 -8 -5 -4 -12 4 -7 3 -8 -5 -4 -6 4
-9 12 -6 17 9 13 -8 11 -30 -4 -17 -13 -17 -15 6 -30 26 -19 19 -23 -11 -7
-16 8 -18 7 -14 -4 5 -14 -11 -30 -31 -31 -11 0 -15 -8 -15 -26 0 -6 7 -9 15
-6 8 4 17 2 20 -3 4 -6 11 -10 18 -10 8 0 8 3 -1 12 -24 24 -12 31 13 8 14
-13 28 -20 32 -16 5 5 -2 15 -14 23 -13 9 -23 20 -23 26 0 7 4 7 12 -1 20 -20
46 -13 59 17 9 19 18 27 28 23 13 -4 13 -2 4 8 -6 7 -9 18 -7 25 3 8 -4 13
-20 13 -14 0 -23 -4 -20 -9z m9 -49 c-3 -5 -12 -10 -18 -10 -7 0 -6 4 3 10 19
12 23 12 15 0z"/>
<path d="M540 866 c0 -9 7 -16 16 -16 17 0 14 22 -4 28 -7 2 -12 -3 -12 -12z"/>
<path d="M1116 740 c-21 -4 -42 -13 -47 -21 -16 -25 -10 -30 16 -13 15 10 34
14 49 10 16 -4 26 -1 30 9 7 20 -2 23 -48 15z"/>
<path d="M1180 735 c0 -8 4 -15 10 -15 5 0 7 7 4 15 -4 8 -8 15 -10 15 -2 0
-4 -7 -4 -15z"/>
<path d="M1110 695 c0 -8 5 -15 10 -15 6 0 10 7 10 15 0 8 -4 15 -10 15 -5 0
-10 -7 -10 -15z"/>
<path d="M1155 690 c-72 -46 -70 -42 -43 -113 9 -24 15 -27 37 -21 14 4 34 6
44 6 9 0 17 4 17 10 0 5 9 17 21 27 l21 17 -29 47 c-15 25 -30 46 -33 46 -3 0
-18 -9 -35 -19z m35 -10 c0 -5 -18 -19 -40 -30 -51 -26 -53 -9 -2 18 45 25 42
24 42 12z m20 -28 c0 -5 -20 -17 -45 -29 -54 -25 -60 -12 -7 16 41 22 52 25
52 13z m14 -32 c-16 -16 -87 -50 -92 -45 -6 6 -7 5 38 33 36 23 73 31 54 12z"/>
<path d="M1072 678 c-14 -14 -16 -42 -2 -33 14 9 32 45 22 45 -4 0 -13 -5 -20
-12z"/>
<path d="M815 731 c-42 -25 -67 -65 -52 -80 6 -6 19 -11 28 -11 28 0 40 -23
24 -47 -13 -19 -11 -33 5 -33 10 0 32 69 25 79 -3 5 5 17 17 25 12 9 19 19 15
22 -4 4 -18 -3 -32 -16 -14 -13 -25 -20 -25 -15 0 5 15 21 33 36 43 38 20 37
-28 -1 -46 -37 -50 -37 -28 -4 9 15 32 33 50 40 18 8 33 16 33 19 0 11 -37 4
-65 -14z"/>
<path d="M910 701 c-5 -11 -10 -25 -10 -30 0 -6 -11 -33 -24 -60 -15 -31 -20
-54 -15 -63 7 -10 10 -8 15 10 8 27 24 29 24 2 0 -27 13 -25 26 5 10 21 9 26
-9 38 -23 15 -16 37 14 37 10 0 19 5 19 10 0 6 -7 10 -15 10 -17 0 -20 25 -5
35 6 3 10 10 10 16 0 16 -19 10 -30 -10z"/>
<path d="M1466 1583 c-3 -4 1 -14 10 -24 15 -17 14 -19 -12 -26 -16 -4 -37 -6
-47 -4 -13 2 -18 -3 -15 -16 2 -12 12 -18 32 -18 32 -1 59 -31 52 -57 -8 -33
12 -28 43 10 l30 37 16 -22 c16 -23 45 -31 45 -14 0 24 -141 147 -154 134z
m74 -68 c30 -32 21 -32 -16 0 -16 14 -24 25 -18 25 6 0 21 -11 34 -25z m-45
-5 c-3 -5 -11 -10 -16 -10 -6 0 -7 5 -4 10 3 6 11 10 16 10 6 0 7 -4 4 -10z
m35 -30 c0 -5 -4 -10 -9 -10 -6 0 -13 5 -16 10 -3 6 1 10 9 10 9 0 16 -4 16
-10z"/>
<path d="M393 1545 c-6 -18 24 -46 47 -42 8 1 16 11 19 22 3 17 1 18 -13 6
-14 -12 -16 -12 -10 3 5 12 2 15 -12 9 -12 -4 -15 -3 -10 5 4 7 2 12 -4 12 -6
0 -13 -7 -17 -15z"/>
<path d="M516 1525 c-15 -19 -22 -35 -17 -35 6 0 16 9 23 20 7 11 17 20 22 20
4 0 -3 -15 -18 -34 -18 -24 -22 -37 -15 -42 7 -4 15 -1 20 7 22 36 28 43 35
36 4 -4 -1 -16 -11 -27 -23 -25 -14 -36 15 -18 17 10 20 20 16 46 -2 17 -1 32
5 32 5 0 9 7 9 15 0 18 -16 20 -24 3 -5 -10 -7 -10 -12 0 -9 19 -20 14 -48
-23z"/>
<path d="M356 1422 c-3 -5 1 -9 9 -9 8 0 12 4 9 9 -3 4 -7 8 -9 8 -2 0 -6 -4
-9 -8z"/>
<path d="M1600 1386 c0 -8 4 -17 9 -20 5 -4 7 3 4 14 -6 23 -13 26 -13 6z"/>
<path d="M353 1363 c-18 -6 -16 -30 2 -37 9 -3 18 1 22 10 7 18 -7 33 -24 27z"/>
<path d="M1634 1349 c-10 -17 13 -36 27 -22 12 12 4 33 -11 33 -5 0 -12 -5
-16 -11z"/>
<path d="M266 1232 c-13 -13 -4 -22 34 -32 30 -8 38 -14 33 -27 -4 -10 -2 -14
7 -11 8 2 18 19 23 37 9 36 1 54 -13 31 -7 -11 -16 -12 -44 -3 -19 6 -37 8
-40 5z"/>
<path d="M1566 1228 c3 -5 10 -6 15 -3 13 9 11 12 -6 12 -8 0 -12 -4 -9 -9z"/>
<path d="M1640 1226 c0 -9 12 -19 27 -22 23 -6 24 -8 10 -19 -10 -7 -17 -20
-17 -30 0 -16 4 -15 28 8 15 15 36 27 45 27 9 0 17 7 17 15 0 11 -11 15 -36
15 -19 0 -44 5 -55 10 -15 8 -19 7 -19 -4z"/>
<path d="M292 1128 c-7 -7 -12 -18 -12 -25 0 -7 -4 -13 -10 -13 -5 0 -10 9
-10 20 0 11 -4 20 -10 20 -5 0 -10 -14 -10 -30 0 -44 27 -51 57 -14 l23 29 0
-27 c0 -16 5 -28 10 -28 6 0 10 13 10 30 0 34 -29 57 -48 38z"/>
<path d="M1668 1090 c3 -25 9 -39 16 -37 6 3 10 9 9 15 -1 6 15 13 37 17 55 9
55 35 0 28 -26 -4 -40 -2 -40 6 0 6 -6 11 -13 11 -9 0 -11 -12 -9 -40z"/>
<path d="M1670 1025 c0 -11 12 -15 50 -15 38 0 50 4 50 15 0 11 -12 15 -50 15
-38 0 -50 -4 -50 -15z"/>
<path d="M236 1013 c-4 -10 9 -13 50 -13 36 0 54 4 52 11 -5 16 -96 18 -102 2z"/>
<path d="M1670 967 c0 -48 44 -63 60 -21 10 24 33 25 28 1 -2 -7 2 -13 7 -14
6 -2 9 4 9 12 -1 8 -2 22 -3 30 -2 24 -52 19 -58 -5 -3 -11 -9 -20 -14 -20 -5
0 -9 9 -9 20 0 11 -4 20 -10 20 -5 0 -10 -10 -10 -23z"/>
<path d="M258 953 c-10 -2 -18 -11 -18 -18 0 -11 7 -12 32 -4 43 12 46 5 9
-17 -18 -10 -31 -27 -31 -37 0 -17 5 -19 38 -13 20 3 43 6 50 6 6 0 12 7 12
15 0 18 3 17 -38 6 -20 -6 -32 -6 -32 0 0 5 6 9 13 9 16 0 47 32 47 48 0 12
-47 14 -82 5z"/>
<path d="M1660 884 c-6 -14 -10 -29 -10 -34 0 -15 94 -38 102 -26 4 6 -1 15
-12 20 -26 12 -25 24 2 28 12 2 23 9 26 17 3 10 -3 12 -27 6 -20 -4 -31 -3
-31 4 0 23 -41 11 -50 -15z m40 -12 c0 -13 -12 -22 -22 -16 -10 6 -1 24 13 24
5 0 9 -4 9 -8z"/>
<path d="M213 855 c0 -8 4 -12 9 -9 5 3 6 10 3 15 -9 13 -12 11 -12 -6z"/>
<path d="M300 827 c-28 -14 -37 -46 -20 -77 9 -17 17 -20 38 -15 34 8 34 9 26
29 -3 9 -13 16 -21 16 -8 0 -11 -4 -8 -10 3 -5 2 -10 -4 -10 -18 0 -23 22 -8
37 19 20 57 8 57 -18 0 -10 7 -19 14 -19 21 0 1 57 -24 70 -23 12 -20 12 -50
-3z"/>
<path d="M1631 789 c-6 -18 -11 -33 -11 -34 0 -4 91 -37 94 -34 1 2 8 17 14
33 16 37 6 48 -17 18 -19 -26 -35 -19 -20 9 7 13 6 19 -1 19 -6 0 -13 -7 -16
-15 -10 -25 -27 -17 -20 10 9 36 -10 31 -23 -6z"/>
<path d="M1765 770 c-3 -6 1 -7 9 -4 18 7 21 14 7 14 -6 0 -13 -4 -16 -10z"/>
<path d="M1605 729 c-5 -8 2 -21 18 -35 35 -30 34 -35 -4 -22 -28 10 -34 8
-50 -13 -10 -13 -19 -27 -19 -30 0 -3 17 -18 37 -32 26 -19 40 -23 48 -16 7 7
5 13 -6 19 -9 5 -27 19 -40 30 l-24 21 51 -5 c74 -9 85 9 35 58 -28 27 -41 34
-46 25z"/>
<path d="M353 707 c-32 -17 -40 -26 -33 -36 7 -13 11 -13 25 -1 14 12 18 12
26 -1 6 -10 3 -17 -11 -23 -21 -10 -26 -21 -11 -30 12 -8 92 37 88 49 -2 6
-13 10 -24 10 -28 0 -40 13 -19 21 16 6 23 34 9 34 -5 -1 -27 -11 -50 -23z"/>
<path d="M420 601 c-32 -26 -33 -30 -22 -55 14 -32 43 -34 83 -6 18 13 26 26
22 36 -5 12 -10 11 -32 -10 -15 -14 -32 -26 -39 -26 -21 0 -13 28 15 50 17 13
23 24 17 30 -6 6 -22 0 -44 -19z"/>
<path d="M1525 600 c-3 -5 6 -21 22 -35 l28 -25 -38 16 c-30 12 -42 12 -53 3
-17 -14 -8 -28 38 -61 40 -28 48 -14 12 23 l-29 30 39 -16 c29 -12 41 -13 52
-4 11 9 12 15 3 26 -23 28 -67 54 -74 43z"/>
<path d="M490 505 c-43 -23 -44 -27 -11 -29 14 -1 24 -15 37 -51 5 -17 10 -12
29 30 16 35 20 54 13 63 -13 16 -15 15 -68 -13z m44 -20 c-4 -8 -10 -12 -15
-9 -11 6 -2 24 11 24 5 0 7 -7 4 -15z"/>
<path d="M1447 524 c-3 -4 5 -21 19 -39 32 -43 13 -58 -26 -20 -38 37 -48 15
-11 -27 26 -29 31 -31 55 -20 33 15 34 48 1 85 -26 29 -28 30 -38 21z"/>
<path d="M706 373 c-13 -13 -5 -23 30 -38 44 -18 44 -18 44 -2 0 15 -64 49
-74 40z"/>
<path d="M837 362 c-10 -2 -16 -9 -14 -15 3 -7 10 -11 17 -9 7 2 10 -3 8 -10
-18 -47 -19 -58 -5 -58 8 0 18 12 21 28 4 15 9 34 12 43 5 18 -11 27 -39 21z"/>
<path d="M1122 354 c-24 -16 -21 -37 3 -27 11 4 15 -3 15 -26 0 -22 5 -31 16
-31 12 0 14 7 8 33 -14 66 -17 69 -42 51z"/>
<path d="M1243 356 c-18 -6 -33 -16 -33 -23 0 -16 5 -16 47 -1 54 20 41 41
-14 24z"/>
<path d="M916 334 c-8 -21 12 -47 31 -39 9 3 13 0 10 -7 -2 -7 -14 -12 -25
-10 -12 2 -22 -2 -22 -7 0 -13 39 -14 58 -2 8 5 12 22 10 42 -2 28 -7 35 -29
37 -18 2 -29 -3 -33 -14z m41 -20 c-9 -9 -28 6 -21 18 4 6 10 6 17 -1 6 -6 8
-13 4 -17z"/>
<path d="M1032 338 c-17 -17 -15 -31 3 -24 12 4 15 -3 15 -30 0 -21 4 -34 11
-32 6 2 10 7 10 11 -1 4 -1 25 -1 47 0 41 -14 52 -38 28z"/>
<path d="M636 307 c3 -10 9 -15 12 -12 3 3 0 11 -7 18 -10 9 -11 8 -5 -6z"/>
<path d="M810 230 c-9 -6 -10 -10 -3 -10 6 0 15 5 18 10 8 12 4 12 -15 0z"/>
<path d="M1966 1337 c3 -10 9 -15 12 -12 3 3 0 11 -7 18 -10 9 -11 8 -5 -6z"/>
<path d="M180 426 c0 -2 8 -10 18 -17 15 -13 16 -12 3 4 -13 16 -21 21 -21 13z"/>
<path d="M400 196 c0 -2 8 -10 18 -17 15 -13 16 -12 3 4 -13 16 -21 21 -21 13z"/>
</g>
</svg>
